<svg width="17" height="18" viewBox="0 0 17 18" fill="none" xmlns="http://www.w3.org/2000/svg">
<path d="M7.97807 1H9.3114C9.42992 1 9.48918 1.05926 9.48918 1.17778V16.8222C9.48918 16.9407 9.42992 17 9.3114 17H7.97807C7.85955 17 7.80029 16.9407 7.80029 16.8222V1.17778C7.80029 1.05926 7.85955 1 7.97807 1Z" fill="#F6DA2B" stroke="#F6DA2B"/>
<path d="M1.17778 8.15558H16.1111C16.2296 8.15558 16.2889 8.21484 16.2889 8.33336V9.66669C16.2889 9.78521 16.2296 9.84447 16.1111 9.84447H1.17778C1.05926 9.84447 1 9.78521 1 9.66669V8.33336C1 8.21484 1.05926 8.15558 1.17778 8.15558Z" fill="#F6DA2B" stroke="#F6DA2B"/>
</svg>
