<svg width="16" height="16" viewBox="0 0 16 16" fill="none" xmlns="http://www.w3.org/2000/svg">
<path d="M8 1.125C6.64026 1.125 5.31105 1.52821 4.18046 2.28365C3.04987 3.03908 2.16868 4.11281 1.64833 5.36905C1.12798 6.62529 0.991831 8.00763 1.2571 9.34125C1.52238 10.6749 2.17716 11.8999 3.13864 12.8614C4.10013 13.8228 5.32514 14.4776 6.65876 14.7429C7.99238 15.0082 9.37471 14.872 10.631 14.3517C11.8872 13.8313 12.9609 12.9501 13.7164 11.8195C14.4718 10.689 14.875 9.35975 14.875 8C14.875 6.17664 14.1507 4.42795 12.8614 3.13864C11.5721 1.84933 9.82337 1.125 8 1.125Z" stroke="#383838" stroke-miterlimit="10"/>
<path d="M5.8125 5.90194C5.8125 5.90194 5.84531 5.21835 6.57695 4.62968C7.01094 4.28007 7.53125 4.1789 8 4.17187C8.42695 4.1664 8.8082 4.2371 9.03633 4.34569C9.42695 4.53163 10.1875 4.98554 10.1875 5.95077C10.1875 6.9664 9.52344 7.42773 8.7668 7.93515C8.01016 8.44257 7.80469 8.99335 7.80469 9.56249" stroke="#383838" stroke-width="0.875" stroke-miterlimit="10" stroke-linecap="round"/>
<path d="M7.76562 12.375C8.1971 12.375 8.54688 12.0252 8.54688 11.5938C8.54688 11.1623 8.1971 10.8125 7.76562 10.8125C7.33415 10.8125 6.98438 11.1623 6.98438 11.5938C6.98438 12.0252 7.33415 12.375 7.76562 12.375Z" fill="#383838"/>
</svg>
