<svg width="10" height="12" viewBox="0 0 10 12" fill="none" xmlns="http://www.w3.org/2000/svg">
<path d="M9.00004 6.66665C9.17685 6.66665 9.34642 6.73688 9.47145 6.86191C9.59647 6.98693 9.66671 7.1565 9.66671 7.33331C9.66668 8.27837 9.37971 9.20116 8.84378 9.97957C8.30785 10.758 7.54821 11.3553 6.66537 11.6926C5.78253 12.0298 4.8181 12.0911 3.89969 11.8683C2.98127 11.6454 2.15216 11.149 1.52204 10.4446C1.46269 10.3796 1.41682 10.3034 1.38708 10.2205C1.35734 10.1376 1.34432 10.0496 1.34877 9.96169C1.35322 9.87373 1.37505 9.78753 1.41301 9.70806C1.45096 9.62859 1.50428 9.55743 1.5699 9.49868C1.63551 9.43994 1.71211 9.39478 1.79528 9.36581C1.87845 9.33684 1.96653 9.32463 2.05444 9.3299C2.14235 9.33516 2.22835 9.35779 2.30746 9.39648C2.38658 9.43517 2.45724 9.48916 2.51537 9.55531C2.96541 10.0585 3.55763 10.4132 4.21367 10.5725C4.86971 10.7318 5.55865 10.6881 6.18932 10.4472C6.81999 10.2063 7.36265 9.77967 7.74551 9.22363C8.12837 8.66759 8.33336 8.00841 8.33337 7.33331C8.33337 7.1565 8.40361 6.98693 8.52864 6.86191C8.65366 6.73688 8.82323 6.66665 9.00004 6.66665ZM8.42671 2.49665C8.55833 2.37862 8.63768 2.21314 8.64731 2.03661C8.65694 1.86008 8.59605 1.68695 8.47804 1.55531C7.84792 0.85097 7.01881 0.35454 6.10039 0.131704C5.18198 -0.091132 4.21755 -0.0298713 3.33471 0.307381C2.45187 0.644633 1.69223 1.24198 1.1563 2.02039C0.620368 2.7988 0.333403 3.72158 0.333374 4.66665C0.333374 4.84346 0.403612 5.01303 0.528636 5.13805C0.653661 5.26307 0.82323 5.33331 1.00004 5.33331C1.17685 5.33331 1.34642 5.26307 1.47145 5.13805C1.59647 5.01303 1.66671 4.84346 1.66671 4.66665C1.66672 3.99155 1.87172 3.33237 2.25457 2.77633C2.63743 2.22029 3.1801 1.79361 3.81076 1.55275C4.44143 1.31188 5.13037 1.26819 5.78641 1.42745C6.44245 1.58672 7.03468 1.94143 7.48471 2.44465C7.60264 2.57636 7.76807 2.65584 7.94461 2.66559C8.12114 2.67534 8.29431 2.61457 8.42604 2.49665H8.42671Z" fill="#383838"/>
</svg>
