<svg width="20" height="20" viewBox="0 0 20 20" fill="none" xmlns="http://www.w3.org/2000/svg">
<path fill-rule="evenodd" clip-rule="evenodd" d="M4.28562 2.38098H15.7142C16.2194 2.38098 16.7039 2.58166 17.0611 2.93887C17.4183 3.29609 17.619 3.78057 17.619 4.28574V15.7048C17.619 16.21 17.4183 16.6945 17.0611 17.0517C16.7039 17.4089 16.2194 17.6096 15.7142 17.6096H4.28562C3.78045 17.6096 3.29596 17.4089 2.93875 17.0517C2.58154 16.6945 2.38086 16.21 2.38086 15.7048V4.28574C2.38086 3.78057 2.58154 3.29609 2.93875 2.93887C3.29596 2.58166 3.78045 2.38098 4.28562 2.38098V2.38098Z" stroke="#383838" stroke-linecap="round" stroke-linejoin="round"/>
<path d="M2.53223 6.19049H17.6189" stroke="#383838" stroke-linecap="round" stroke-linejoin="round"/>
<path fill-rule="evenodd" clip-rule="evenodd" d="M6.49124 12.5286V11.501H7.32934C7.96553 11.501 8.39791 11.1248 8.39791 10.5753C8.39791 10.0734 8.00267 9.69242 7.34743 9.69242C6.66839 9.69242 6.25029 10.041 6.20362 10.641H4.90458C4.95315 9.40385 5.90553 8.57147 7.41696 8.57147C8.90553 8.57147 9.73315 9.39433 9.72839 10.3762C9.72362 11.1896 9.2122 11.7248 8.49124 11.901V11.9896C9.42553 12.1239 9.99315 12.7191 9.99315 13.6172C9.99315 14.7934 8.88648 15.6267 7.37029 15.6267C5.8541 15.6267 4.82172 14.7972 4.76172 13.5277H6.10553C6.14743 14.0953 6.63124 14.4581 7.3522 14.4581C8.06362 14.4581 8.56172 14.0715 8.56172 13.4905C8.56172 12.8953 8.096 12.5286 7.34267 12.5286H6.49124Z" fill="#383838"/>
<path fill-rule="evenodd" clip-rule="evenodd" d="M12.8723 15.4543V10.1105H12.7895L11.1428 11.2457V9.93907L12.8771 8.74384H14.2771V15.4543H12.8723Z" fill="#383838"/>
<circle cx="16.9492" cy="16.95" r="2.75" fill="#FAFBFD"/>
<path fill-rule="evenodd" clip-rule="evenodd" d="M16.9167 19C17.4692 19 17.9991 18.7805 18.3898 18.3898C18.7805 17.9991 19 17.4692 19 16.9167C19 16.3641 18.7805 15.8342 18.3898 15.4435C17.9991 15.0528 17.4692 14.8333 16.9167 14.8333C16.3641 14.8333 15.8342 15.0528 15.4435 15.4435C15.0528 15.8342 14.8333 16.3641 14.8333 16.9167C14.8333 17.4692 15.0528 17.9991 15.4435 18.3898C15.8342 18.7805 16.3641 19 16.9167 19ZM16.9167 19.8333C17.6902 19.8333 18.4321 19.526 18.9791 18.9791C19.526 18.4321 19.8333 17.6902 19.8333 16.9167C19.8333 16.1431 19.526 15.4013 18.9791 14.8543C18.4321 14.3073 17.6902 14 16.9167 14C16.1431 14 15.4013 14.3073 14.8543 14.8543C14.3073 15.4013 14 16.1431 14 16.9167C14 17.6902 14.3073 18.4321 14.8543 18.9791C15.4013 19.526 16.1431 19.8333 16.9167 19.8333Z" fill="#F6DA2B"/>
<path fill-rule="evenodd" clip-rule="evenodd" d="M16.9167 15.4583C17.0272 15.4583 17.1332 15.5022 17.2113 15.5803C17.2894 15.6584 17.3333 15.7644 17.3333 15.8749V16.7441L17.6279 17.0387C17.7038 17.1173 17.7458 17.2225 17.7449 17.3318C17.7439 17.441 17.7001 17.5455 17.6228 17.6228C17.5456 17.7 17.4411 17.7438 17.3318 17.7448C17.2226 17.7457 17.1173 17.7037 17.0387 17.6278L16.5 17.0891V15.8749C16.5 15.7644 16.5439 15.6584 16.622 15.5803C16.7002 15.5022 16.8062 15.4583 16.9167 15.4583Z" fill="#F6DA2B"/>
</svg>
