<svg width="20" height="20" viewBox="0 0 20 20" fill="none" xmlns="http://www.w3.org/2000/svg">
<path fill-rule="evenodd" clip-rule="evenodd" d="M4.28391 2.38098H15.7125C16.2177 2.38098 16.7021 2.58166 17.0594 2.93887C17.4166 3.29609 17.6172 3.78057 17.6172 4.28574V15.7048C17.6172 16.21 17.4166 16.6945 17.0594 17.0517C16.7021 17.4089 16.2177 17.6096 15.7125 17.6096H4.28391C3.77874 17.6096 3.29425 17.4089 2.93704 17.0517C2.57983 16.6945 2.37915 16.21 2.37915 15.7048V4.28574C2.37915 3.78057 2.57983 3.29609 2.93704 2.93887C3.29425 2.58166 3.77874 2.38098 4.28391 2.38098V2.38098Z" stroke="#383838" stroke-linecap="round" stroke-linejoin="round"/>
<path d="M2.53247 6.19049H17.6191" stroke="#383838" stroke-linecap="round" stroke-linejoin="round"/>
<path fill-rule="evenodd" clip-rule="evenodd" d="M6.49124 12.5286V11.501H7.32934C7.96553 11.501 8.39791 11.1248 8.39791 10.5753C8.39791 10.0734 8.00267 9.69242 7.34743 9.69242C6.66839 9.69242 6.25029 10.041 6.20362 10.641H4.90458C4.95315 9.40385 5.90553 8.57147 7.41696 8.57147C8.90553 8.57147 9.73315 9.39433 9.72839 10.3762C9.72362 11.1896 9.2122 11.7248 8.49124 11.901V11.9896C9.42553 12.1239 9.99315 12.7191 9.99315 13.6172C9.99315 14.7934 8.88648 15.6267 7.37029 15.6267C5.8541 15.6267 4.82172 14.7972 4.76172 13.5277H6.10553C6.14743 14.0953 6.63124 14.4581 7.3522 14.4581C8.06362 14.4581 8.56172 14.0715 8.56172 13.4905C8.56172 12.8953 8.096 12.5286 7.34267 12.5286H6.49124Z" fill="#383838"/>
<path fill-rule="evenodd" clip-rule="evenodd" d="M12.8723 15.4543V10.1105H12.7895L11.1428 11.2457V9.93907L12.8771 8.74384H14.2771V15.4543H12.8723Z" fill="#383838"/>
<path d="M16.9966 11.2204C17.1854 11.3216 17.3519 11.4597 17.4863 11.6264C17.6206 11.7932 17.7201 11.9852 17.7788 12.1912C17.8376 12.3971 17.8543 12.6128 17.8281 12.8253C17.8018 13.0379 17.7332 13.243 17.6261 13.4285C17.5191 13.614 17.3759 13.7761 17.205 13.9052C17.0342 14.0343 16.8391 14.1277 16.6314 14.18C16.4237 14.2322 16.2077 14.2422 15.996 14.2094C15.7844 14.1765 15.5815 14.1015 15.3995 13.9887C15.0464 13.77 14.7922 13.4224 14.6909 13.0196C14.5896 12.6168 14.649 12.1903 14.8565 11.8306C15.0641 11.4708 15.4036 11.2059 15.803 11.092C16.2025 10.9781 16.6306 11.0242 16.9966 11.2204Z" fill="#F6DA2B"/>
<path d="M13.0256 16.6018C13.0083 16.4693 12.9998 16.3358 13 16.2021C13 15.8841 13.1263 15.5791 13.3512 15.3543C13.5761 15.1294 13.8811 15.0031 14.1991 15.0031H18.196C18.514 15.0031 18.819 15.1294 19.0438 15.3543C19.2687 15.5791 19.395 15.8841 19.395 16.2021C19.395 17.0942 19.0281 17.8089 18.4262 18.2925C17.8339 18.7681 17.0393 19 16.1975 19C15.3558 19 14.5612 18.7681 13.9689 18.2925C13.4436 17.8755 13.1045 17.2678 13.0256 16.6018Z" fill="#F6DA2B"/>
</svg>
