<svg width="20" height="20" viewBox="0 0 20 20" fill="none" xmlns="http://www.w3.org/2000/svg">
<rect x="7" y="3" width="6" height="6" rx="3" fill="#F6DA2B"/>
<path fill-rule="evenodd" clip-rule="evenodd" d="M10.0001 2.99965C9.60614 2.99965 9.21602 3.07725 8.85204 3.22802C8.48805 3.37879 8.15733 3.59977 7.87875 3.87835C7.60016 4.15693 7.37918 4.48766 7.22841 4.85165C7.07765 5.21563 7.00005 5.60575 7.00005 5.99972C7.00005 6.3937 7.07765 6.78381 7.22841 7.1478C7.37918 7.51178 7.60016 7.84251 7.87875 8.12109C8.15733 8.39967 8.48805 8.62066 8.85204 8.77143C9.21602 8.92219 9.60614 8.99979 10.0001 8.99979C10.7958 8.99979 11.5589 8.68371 12.1215 8.12109C12.6841 7.55847 13.0002 6.79539 13.0002 5.99972C13.0002 5.20405 12.6841 4.44097 12.1215 3.87835C11.5589 3.31573 10.7958 2.99965 10.0001 2.99965ZM6.00002 5.99972C6.00009 5.22993 6.22228 4.47651 6.63993 3.82986C7.05758 3.18322 7.65294 2.67082 8.35458 2.35414C9.05622 2.03747 9.83433 1.92998 10.5955 2.04457C11.3568 2.15915 12.0687 2.49095 12.6461 3.00015C13.2234 3.50935 13.6415 4.17431 13.8503 4.91525C14.0591 5.65619 14.0496 6.44164 13.8231 7.17734C13.5965 7.91304 13.1625 8.56774 12.5731 9.06289C11.9836 9.55803 11.2639 9.87259 10.5001 9.96881V15.4999C10.5001 15.6326 10.4474 15.7597 10.3537 15.8535C10.2599 15.9473 10.1327 16 10.0001 16C9.8675 16 9.74032 15.9473 9.64655 15.8535C9.55278 15.7597 9.5001 15.6326 9.5001 15.4999V9.96981C8.53305 9.84798 7.64375 9.37724 6.99926 8.64602C6.35477 7.9148 5.99944 6.97342 6.00002 5.99872V5.99972ZM8.49308 14.5739C8.51477 14.7047 8.48366 14.8387 8.40659 14.9465C8.32952 15.0543 8.2128 15.1271 8.08207 15.1489C7.37005 15.2669 6.80204 15.4439 6.42703 15.6419C6.28927 15.7082 6.16407 15.7978 6.05702 15.907C6.03282 15.9333 6.01352 15.9638 6.00002 15.997V16L6.00202 16.008C6.00596 16.0196 6.01133 16.0307 6.01802 16.041C6.05749 16.0988 6.10653 16.1496 6.16303 16.191C6.32803 16.321 6.59804 16.461 6.97605 16.586C7.72706 16.836 8.79609 17 10.0001 17C11.2041 17 12.2732 16.837 13.0242 16.586C13.4022 16.46 13.6722 16.321 13.8372 16.191C13.894 16.1496 13.9434 16.0989 13.9832 16.041C13.9895 16.0306 13.9946 16.0195 13.9982 16.008L14.0002 16V15.996C13.9867 15.9628 13.9674 15.9323 13.9432 15.906C13.8361 15.7972 13.7109 15.7079 13.5732 15.6419C13.1972 15.4439 12.6302 15.2669 11.9182 15.1489C11.8518 15.1399 11.788 15.1177 11.7304 15.0836C11.6728 15.0495 11.6227 15.0042 11.5829 14.9503C11.5432 14.8964 11.5147 14.8352 11.4991 14.7701C11.4835 14.705 11.4811 14.6374 11.4921 14.5714C11.503 14.5054 11.5272 14.4422 11.563 14.3857C11.5988 14.3292 11.6457 14.2804 11.7007 14.2423C11.7557 14.2042 11.8179 14.1776 11.8834 14.1639C11.9489 14.1503 12.0165 14.1499 12.0822 14.1629C12.8522 14.2899 13.5342 14.4909 14.0392 14.7569C14.5002 14.9999 15.0002 15.3999 15.0002 16C15.0002 16.426 14.7402 16.752 14.4562 16.977C14.1662 17.205 13.7762 17.39 13.3402 17.535C12.4622 17.828 11.2811 18 10.0001 18C8.71909 18 7.53806 17.828 6.66004 17.535C6.22403 17.39 5.83402 17.205 5.54401 16.977C5.26001 16.752 5 16.426 5 16C5 15.4009 5.50001 14.9999 5.96102 14.7569C6.46603 14.4909 7.14805 14.2899 7.91807 14.1629C8.04881 14.1412 8.18282 14.1723 8.29064 14.2494C8.39846 14.3265 8.47128 14.4432 8.49308 14.5739Z" fill="#383838"/>
</svg>
