<svg width="20" height="20" viewBox="0 0 20 20" fill="none" xmlns="http://www.w3.org/2000/svg">
<path fill-rule="evenodd" clip-rule="evenodd" d="M9.375 1.25C7.22012 1.25 5.15349 2.10602 3.62976 3.62976C2.10602 5.15349 1.25 7.22012 1.25 9.375C1.25 11.5299 2.10602 13.5965 3.62976 15.1202C5.15349 16.644 7.22012 17.5 9.375 17.5C11.5299 17.5 13.5965 16.644 15.1202 15.1202C16.644 13.5965 17.5 11.5299 17.5 9.375C17.5 7.22012 16.644 5.15349 15.1202 3.62976C13.5965 2.10602 11.5299 1.25 9.375 1.25ZM9.375 16.25C7.55164 16.25 5.80295 15.5257 4.51364 14.2364C3.22433 12.947 2.5 11.1984 2.5 9.375C2.5 7.55164 3.22433 5.80295 4.51364 4.51364C5.80295 3.22433 7.55164 2.5 9.375 2.5C11.1984 2.5 12.947 3.22433 14.2364 4.51364C15.5257 5.80295 16.25 7.55164 16.25 9.375C16.25 11.1984 15.5257 12.947 14.2364 14.2364C12.947 15.5257 11.1984 16.25 9.375 16.25ZM11.3125 5.725C11.0965 5.50013 10.8371 5.32151 10.55 5.2C10.1888 5.05536 9.80142 4.98726 9.4125 5C9.03501 4.99315 8.66028 5.06554 8.3125 5.2125C8.01375 5.3375 7.75 5.53 7.5375 5.775C7.33049 6.00015 7.16917 6.26335 7.0625 6.55C6.96332 6.84117 6.90035 7.14345 6.875 7.45H8.4125C8.41958 7.25161 8.48276 7.05929 8.59471 6.89535C8.70666 6.7314 8.86279 6.60256 9.045 6.52375C9.16577 6.47617 9.2954 6.45528 9.425 6.4625C9.5368 6.44473 9.6507 6.44473 9.7625 6.4625C9.8652 6.50134 9.95881 6.56091 10.0375 6.6375C10.1243 6.71265 10.1928 6.80673 10.2375 6.9125C10.2887 7.0308 10.3143 7.15861 10.3125 7.2875C10.3125 7.50375 10.2663 7.71625 10.175 7.9125C10.0842 8.11611 9.97101 8.30897 9.8375 8.4875L9.4 9.0125C9.25 9.175 9.1 9.35 8.9625 9.525C8.82918 9.69919 8.71596 9.88789 8.625 10.0875C8.53828 10.2842 8.49562 10.4975 8.5 10.7125V11.5375H10V10.925C10.0042 10.7417 10.0513 10.5619 10.1375 10.4C10.2402 10.2201 10.3573 10.0487 10.4875 9.8875L10.9375 9.3375C11.1013 9.14825 11.2517 8.94776 11.3875 8.7375C11.5312 8.5231 11.6487 8.2923 11.7375 8.05C11.8287 7.79314 11.8752 7.52256 11.875 7.25C11.8772 6.96603 11.8351 6.68345 11.75 6.4125C11.6556 6.15439 11.5063 5.91983 11.3125 5.725ZM8.5 12.2875H9.9625V13.75H8.5V12.2875Z" fill="#F6DA2B"/>
<path fill-rule="evenodd" clip-rule="evenodd" d="M3.62976 3.62976C5.15349 2.10602 7.22012 1.25 9.375 1.25C11.5299 1.25 13.5965 2.10602 15.1202 3.62976C16.644 5.15349 17.5 7.22012 17.5 9.375C17.5 11.5299 16.644 13.5965 15.1202 15.1202C13.5965 16.644 11.5299 17.5 9.375 17.5C7.22012 17.5 5.15349 16.644 3.62976 15.1202C2.10602 13.5965 1.25 11.5299 1.25 9.375C1.25 7.22012 2.10602 5.15349 3.62976 3.62976ZM4.51364 14.2364C5.80295 15.5257 7.55164 16.25 9.375 16.25C11.1984 16.25 12.947 15.5257 14.2364 14.2364C15.5257 12.947 16.25 11.1984 16.25 9.375C16.25 7.55164 15.5257 5.80295 14.2364 4.51364C12.947 3.22433 11.1984 2.5 9.375 2.5C7.55164 2.5 5.80295 3.22433 4.51364 4.51364C3.22433 5.80295 2.5 7.55164 2.5 9.375C2.5 11.1984 3.22433 12.947 4.51364 14.2364Z" fill="#383838"/>
</svg>
