<svg width="20" height="20" viewBox="0 0 20 20" fill="none" xmlns="http://www.w3.org/2000/svg">
<path d="M13.0714 10.5714C12.7778 10.5714 12.4962 10.4585 12.2886 10.2576C12.0809 10.0567 11.9643 9.78416 11.9643 9.5C11.9643 9.21584 12.0809 8.94332 12.2886 8.74239C12.4962 8.54145 12.7778 8.42857 13.0714 8.42857C13.3651 8.42857 13.6467 8.54145 13.8543 8.74239C14.0619 8.94332 14.1786 9.21584 14.1786 9.5C14.1786 9.78416 14.0619 10.0567 13.8543 10.2576C13.6467 10.4585 13.3651 10.5714 13.0714 10.5714ZM11.9643 12.7143C11.9643 12.9984 12.0809 13.271 12.2886 13.4719C12.4962 13.6728 12.7778 13.7857 13.0714 13.7857C13.3651 13.7857 13.6467 13.6728 13.8543 13.4719C14.0619 13.271 14.1786 12.9984 14.1786 12.7143C14.1786 12.4301 14.0619 12.1576 13.8543 11.9567C13.6467 11.7557 13.3651 11.6429 13.0714 11.6429C12.7778 11.6429 12.4962 11.7557 12.2886 11.9567C12.0809 12.1576 11.9643 12.4301 11.9643 12.7143ZM9.75 10.5714C9.45637 10.5714 9.17476 10.4585 8.96713 10.2576C8.7595 10.0567 8.64286 9.78416 8.64286 9.5C8.64286 9.21584 8.7595 8.94332 8.96713 8.74239C9.17476 8.54145 9.45637 8.42857 9.75 8.42857C10.0436 8.42857 10.3252 8.54145 10.5329 8.74239C10.7405 8.94332 10.8571 9.21584 10.8571 9.5C10.8571 9.78416 10.7405 10.0567 10.5329 10.2576C10.3252 10.4585 10.0436 10.5714 9.75 10.5714ZM8.64286 12.7143C8.64286 12.9984 8.7595 13.271 8.96713 13.4719C9.17476 13.6728 9.45637 13.7857 9.75 13.7857C10.0436 13.7857 10.3252 13.6728 10.5329 13.4719C10.7405 13.271 10.8571 12.9984 10.8571 12.7143C10.8571 12.4301 10.7405 12.1576 10.5329 11.9567C10.3252 11.7557 10.0436 11.6429 9.75 11.6429C9.45637 11.6429 9.17476 11.7557 8.96713 11.9567C8.7595 12.1576 8.64286 12.4301 8.64286 12.7143ZM6.42857 10.5714C6.13494 10.5714 5.85333 10.4585 5.6457 10.2576C5.43807 10.0567 5.32143 9.78416 5.32143 9.5C5.32143 9.21584 5.43807 8.94332 5.6457 8.74239C5.85333 8.54145 6.13494 8.42857 6.42857 8.42857C6.7222 8.42857 7.00381 8.54145 7.21144 8.74239C7.41907 8.94332 7.53571 9.21584 7.53571 9.5C7.53571 9.78416 7.41907 10.0567 7.21144 10.2576C7.00381 10.4585 6.7222 10.5714 6.42857 10.5714ZM2 4.67857C2 3.96817 2.29161 3.28686 2.81069 2.78454C3.32976 2.28221 4.03378 2 4.76786 2H14.7321C15.4662 2 16.1702 2.28221 16.6893 2.78454C17.2084 3.28686 17.5 3.96817 17.5 4.67857V14.3214C17.5 15.0318 17.2084 15.7131 16.6893 16.2155C16.1702 16.7178 15.4662 17 14.7321 17H4.76786C4.03378 17 3.32976 16.7178 2.81069 16.2155C2.29161 15.7131 2 15.0318 2 14.3214V4.67857ZM16.3929 6.28571H3.10714V14.3214C3.10714 14.7477 3.28211 15.1565 3.59355 15.4578C3.905 15.7592 4.32741 15.9286 4.76786 15.9286H14.7321C15.1726 15.9286 15.595 15.7592 15.9064 15.4578C16.2179 15.1565 16.3929 14.7477 16.3929 14.3214V6.28571ZM14.7321 3.07143H4.76786C4.32741 3.07143 3.905 3.24075 3.59355 3.54215C3.28211 3.84355 3.10714 4.25233 3.10714 4.67857V5.21429H16.3929V4.67857C16.3929 4.25233 16.2179 3.84355 15.9064 3.54215C15.595 3.24075 15.1726 3.07143 14.7321 3.07143Z" fill="#383838"/>
</svg>
