<svg width="20" height="20" viewBox="0 0 20 20" fill="none" xmlns="http://www.w3.org/2000/svg">
<path d="M3.33341 5H16.6667C17.1088 5 17.5327 5.17559 17.8453 5.48816C18.1578 5.80072 18.3334 6.22464 18.3334 6.66667V13.3333C18.3334 13.7754 18.1578 14.1993 17.8453 14.5118C17.5327 14.8244 17.1088 15 16.6667 15H3.33341C2.89139 15 2.46746 14.8244 2.1549 14.5118C1.84234 14.1993 1.66675 13.7754 1.66675 13.3333V6.66667C1.66675 6.22464 1.84234 5.80072 2.1549 5.48816C2.46746 5.17559 2.89139 5 3.33341 5V5Z" stroke="#383838" stroke-linecap="round" stroke-linejoin="round"/>
<path d="M5.41675 12.9167H6.66675M4.16675 7.08337H5.41675H4.16675ZM6.66675 7.08337H5.41675H6.66675ZM5.41675 7.08337V12.9167V7.08337ZM5.41675 12.9167H4.16675H5.41675Z" stroke="#F6DA2B" stroke-linecap="round" stroke-linejoin="round"/>
</svg>
