<svg width="20" height="20" viewBox="0 0 20 20" fill="none" xmlns="http://www.w3.org/2000/svg">
<path d="M17 5.5C17 4.83696 16.7366 4.20107 16.2678 3.73223C15.7989 3.26339 15.163 3 14.5 3H5.5C4.83696 3 4.20107 3.26339 3.73223 3.73223C3.26339 4.20107 3 4.83696 3 5.5V14.5C3 15.163 3.26339 15.7989 3.73223 16.2678C4.20107 16.7366 4.83696 17 5.5 17H14.5C15.163 17 15.7989 16.7366 16.2678 16.2678C16.7366 15.7989 17 15.163 17 14.5V5.5ZM4 14.5V13H7V16H5.5L5.356 15.993C4.98484 15.9572 4.64032 15.7844 4.38962 15.5084C4.13892 15.2324 4.00002 14.8729 4 14.5ZM12 13V16H8V13H12ZM14.5 16H13V13H16V14.5L15.993 14.645C15.957 15.016 15.7841 15.3603 15.5081 15.6108C15.2321 15.8612 14.8727 16 14.5 16ZM12 8V12H8V8H12ZM13 8H16V12H13V8ZM12 4V7H8V4H12ZM13 4H14.5L14.645 4.007C15.016 4.04303 15.3603 4.21589 15.6108 4.49189C15.8612 4.7679 16 5.12727 16 5.5V7H13V4ZM7 4V7H4V5.5L4.007 5.356C4.0428 4.98484 4.21555 4.64032 4.49158 4.38962C4.76761 4.13892 5.12712 4.00002 5.5 4H7ZM7 8V12H4V8H7Z" fill="#F6DA2B"/>
<path fill-rule="evenodd" clip-rule="evenodd" d="M16.2678 3.73223C16.7366 4.20107 17 4.83696 17 5.5V14.5C17 15.163 16.7366 15.7989 16.2678 16.2678C15.7989 16.7366 15.163 17 14.5 17H5.5C4.83696 17 4.20107 16.7366 3.73223 16.2678C3.26339 15.7989 3 15.163 3 14.5V5.5C3 4.83696 3.26339 4.20107 3.73223 3.73223C4.20107 3.26339 4.83696 3 5.5 3H14.5C15.163 3 15.7989 3.26339 16.2678 3.73223ZM5.5 16C4.67157 16 4 15.3284 4 14.5V13V12V8V7V5.5C4 4.67157 4.67157 4 5.5 4H7H8H12H13H14.5C14.8766 4 15.2208 4.13878 15.4842 4.36799C15.5286 4.40658 15.5709 4.44793 15.6108 4.49189C15.6144 4.49593 15.6181 4.49998 15.6217 4.50406C15.857 4.76894 16 5.11778 16 5.5V7V8V12V13V14.5C16 14.8766 15.8612 15.2208 15.632 15.4842C15.5934 15.5286 15.5521 15.5709 15.5081 15.6108C15.5039 15.6146 15.4997 15.6184 15.4954 15.6221C15.2306 15.8572 14.882 16 14.5 16H13H12H8H7H5.5Z" fill="#383838"/>
</svg>
