<svg width="20" height="20" viewBox="0 0 20 20" fill="none" xmlns="http://www.w3.org/2000/svg">
<path d="M8.765 7.076C8.68931 7.0287 8.60235 7.00251 8.51312 7.00017C8.4239 6.99783 8.33568 7.01941 8.25762 7.06268C8.17955 7.10595 8.11449 7.16932 8.06919 7.24622C8.02389 7.32312 8 7.41075 8 7.5V12.65C7.99999 12.7404 8.02446 12.8291 8.07083 12.9066C8.1172 12.9842 8.18372 13.0477 8.26332 13.0905C8.34293 13.1333 8.43263 13.1537 8.52291 13.1496C8.61318 13.1454 8.70065 13.1169 8.776 13.067L12.776 10.418C12.8456 10.3718 12.9026 10.309 12.9417 10.2351C12.9808 10.1613 13.0007 10.0788 12.9997 9.99528C12.9987 9.91174 12.9768 9.82977 12.936 9.75688C12.8952 9.68399 12.8367 9.62249 12.766 9.578L8.766 7.076H8.765Z" fill="#F6DA2B"/>
<path d="M4.5 3C3.83696 3 3.20107 3.26339 2.73223 3.73223C2.26339 4.20107 2 4.83696 2 5.5V14.5C2 15.163 2.26339 15.7989 2.73223 16.2678C3.20107 16.7366 3.83696 17 4.5 17H15.5C16.163 17 16.7989 16.7366 17.2678 16.2678C17.7366 15.7989 18 15.163 18 14.5V5.5C18 4.83696 17.7366 4.20107 17.2678 3.73223C16.7989 3.26339 16.163 3 15.5 3H4.5ZM3 5.5C3 5.10218 3.15804 4.72064 3.43934 4.43934C3.72064 4.15804 4.10218 4 4.5 4H15.5C15.8978 4 16.2794 4.15804 16.5607 4.43934C16.842 4.72064 17 5.10218 17 5.5V14.5C17 14.8978 16.842 15.2794 16.5607 15.5607C16.2794 15.842 15.8978 16 15.5 16H4.5C4.10218 16 3.72064 15.842 3.43934 15.5607C3.15804 15.2794 3 14.8978 3 14.5V5.5Z" fill="#383838"/>
</svg>
