<svg width="20" height="20" viewBox="0 0 20 20" fill="none" xmlns="http://www.w3.org/2000/svg">
<path d="M18.3463 8.45513L10.589 1.31838C10.3368 1.08637 10.0047 0.960805 9.66211 0.96794C9.31951 0.975074 8.99293 1.11435 8.75063 1.35666L1.61613 8.49119L1.25 8.85728V19.3751H8.125V12.8126H11.875V19.3751H18.75V8.82654L18.3463 8.45513ZM9.68898 2.21767C9.7 2.21767 9.6932 2.22006 9.68848 2.22471C9.68359 2.22006 9.67797 2.21767 9.68898 2.21767ZM17.5 18.1251H13.125V12.8126C13.125 12.481 12.9933 12.1631 12.7589 11.9287C12.5245 11.6943 12.2065 11.5626 11.875 11.5626H8.125C7.79348 11.5626 7.47554 11.6943 7.24112 11.9287C7.0067 12.1631 6.875 12.481 6.875 12.8126V18.1251H2.5V9.37506L9.68898 2.24053C9.68949 2.24006 9.68953 2.23963 9.68992 2.23916L17.5 9.37506V18.1251Z" fill="#383838"/>
</svg>
