<svg width="20" height="20" viewBox="0 0 20 20" fill="none" xmlns="http://www.w3.org/2000/svg">
<path d="M10 15C11.3261 15 12.5979 14.4732 13.5355 13.5355C14.4732 12.5979 15 11.3261 15 10C15 8.67392 14.4732 7.40215 13.5355 6.46447C12.5979 5.52678 11.3261 5 10 5C8.67392 5 7.40215 5.52678 6.46447 6.46447C5.52678 7.40215 5 8.67392 5 10C5 11.3261 5.52678 12.5979 6.46447 13.5355C7.40215 14.4732 8.67392 15 10 15Z" fill="#383838"/>
<path d="M9.75 1C7.42936 1 5.20376 1.92187 3.56282 3.56282C1.92187 5.20376 1 7.42936 1 9.75C1 12.0706 1.92187 14.2962 3.56282 15.9372C5.20376 17.5781 7.42936 18.5 9.75 18.5C12.0706 18.5 14.2962 17.5781 15.9372 15.9372C17.5781 14.2962 18.5 12.0706 18.5 9.75C18.5 7.42936 17.5781 5.20376 15.9372 3.56282C14.2962 1.92187 12.0706 1 9.75 1ZM2.25 9.75C2.25 8.76509 2.44399 7.78982 2.8209 6.87987C3.19781 5.96993 3.75026 5.14314 4.4467 4.4467C5.14314 3.75026 5.96993 3.19781 6.87987 2.8209C7.78982 2.44399 8.76509 2.25 9.75 2.25C10.7349 2.25 11.7102 2.44399 12.6201 2.8209C13.5301 3.19781 14.3569 3.75026 15.0533 4.4467C15.7497 5.14314 16.3022 5.96993 16.6791 6.87987C17.056 7.78982 17.25 8.76509 17.25 9.75C17.25 11.7391 16.4598 13.6468 15.0533 15.0533C13.6468 16.4598 11.7391 17.25 9.75 17.25C7.76088 17.25 5.85322 16.4598 4.4467 15.0533C3.04018 13.6468 2.25 11.7391 2.25 9.75Z" fill="#383838"/>
</svg>
