<svg width="20" height="20" viewBox="0 0 20 20" fill="none" xmlns="http://www.w3.org/2000/svg">
<path d="M11.0417 5.83333C11.0417 6.05435 10.9539 6.26631 10.7976 6.42259C10.6413 6.57887 10.4293 6.66667 10.2083 6.66667C9.98732 6.66667 9.77536 6.57887 9.61908 6.42259C9.4628 6.26631 9.375 6.05435 9.375 5.83333C9.375 5.61232 9.4628 5.40036 9.61908 5.24408C9.77536 5.0878 9.98732 5 10.2083 5C10.4293 5 10.6413 5.0878 10.7976 5.24408C10.9539 5.40036 11.0417 5.61232 11.0417 5.83333Z" fill="#383838"/>
<path d="M9.58325 8.125V12.2917C9.58325 12.4574 9.6491 12.6164 9.76631 12.7336C9.88352 12.8508 10.0425 12.9167 10.2083 12.9167C10.374 12.9167 10.533 12.8508 10.6502 12.7336C10.7674 12.6164 10.8333 12.4574 10.8333 12.2917V8.125C10.8333 7.95924 10.7674 7.80027 10.6502 7.68306C10.533 7.56585 10.374 7.5 10.2083 7.5C10.0425 7.5 9.88352 7.56585 9.76631 7.68306C9.6491 7.80027 9.58325 7.95924 9.58325 8.125Z" fill="#383838"/>
<path d="M3.33325 3.75002C3.33325 3.19749 3.55275 2.66758 3.94345 2.27688C4.33415 1.88618 4.86405 1.66669 5.41658 1.66669H14.9999C15.2735 1.66669 15.5444 1.72057 15.7972 1.82527C16.0499 1.92997 16.2796 2.08343 16.4731 2.27688C16.6665 2.47034 16.82 2.7 16.9247 2.95276C17.0294 3.20552 17.0833 3.47643 17.0833 3.75002V15.625C17.0833 15.7908 17.0174 15.9498 16.9002 16.067C16.783 16.1842 16.624 16.25 16.4583 16.25H4.58325C4.58325 16.471 4.67105 16.683 4.82733 16.8393C4.98361 16.9956 5.19557 17.0834 5.41658 17.0834H16.4583C16.624 17.0834 16.783 17.1492 16.9002 17.2664C17.0174 17.3836 17.0833 17.5426 17.0833 17.7084C17.0833 17.8741 17.0174 18.0331 16.9002 18.1503C16.783 18.2675 16.624 18.3334 16.4583 18.3334H5.41658C4.86405 18.3334 4.33415 18.1139 3.94345 17.7232C3.55275 17.3325 3.33325 16.8026 3.33325 16.25V3.75002ZM15.8333 15V3.75002C15.8333 3.52901 15.7455 3.31705 15.5892 3.16076C15.4329 3.00448 15.2209 2.91669 14.9999 2.91669H5.41658C5.19557 2.91669 4.98361 3.00448 4.82733 3.16076C4.67105 3.31705 4.58325 3.52901 4.58325 3.75002V15H15.8333Z" fill="#383838"/>
</svg>
