<svg width="20" height="20" viewBox="0 0 20 20" fill="none" xmlns="http://www.w3.org/2000/svg">
<path d="M15.7033 6.5625C15.5888 8.15117 14.4103 9.375 13.1252 9.375C11.84 9.375 10.6596 8.15156 10.5471 6.5625C10.4299 4.90977 11.5771 3.75 13.1252 3.75C14.6732 3.75 15.8205 4.93984 15.7033 6.5625Z" stroke="#383838" stroke-width="1.3" stroke-linecap="round" stroke-linejoin="round"/>
<path d="M13.1248 11.875C10.5791 11.875 8.1311 13.1395 7.51781 15.602C7.43656 15.9277 7.64086 16.25 7.97563 16.25H18.2745C18.6092 16.25 18.8123 15.9277 18.7323 15.602C18.119 13.1 15.6709 11.875 13.1248 11.875Z" stroke="#383838" stroke-width="1.3" stroke-miterlimit="10"/>
<path d="M7.81239 7.26328C7.72098 8.53203 6.76864 9.53125 5.74207 9.53125C4.71551 9.53125 3.7616 8.53242 3.67176 7.26328C3.5784 5.94336 4.50535 5 5.74207 5C6.97879 5 7.90574 5.96758 7.81239 7.26328Z" stroke="#383838" stroke-width="1.3" stroke-linecap="round" stroke-linejoin="round"/>
<path d="M8.04677 11.9531C7.34169 11.63 6.56513 11.5058 5.74208 11.5058C3.71083 11.5058 1.7538 12.5156 1.26357 14.4824C1.19911 14.7425 1.36239 15 1.62958 15H6.01552" stroke="#383838" stroke-width="1.3" stroke-miterlimit="10" stroke-linecap="round"/>
</svg>
