<svg width="16" height="16" viewBox="0 0 16 16" fill="none" xmlns="http://www.w3.org/2000/svg">
<path d="M13.4587 7.91088L11.465 6.33744C11.4483 6.32432 11.4283 6.31616 11.4072 6.31391C11.3861 6.31165 11.3647 6.31538 11.3457 6.32468C11.3266 6.33397 11.3105 6.34845 11.2993 6.36646C11.288 6.38447 11.2821 6.40528 11.2822 6.42651V7.43744H7.81342V3.96869H8.82592C8.91967 3.96869 8.9728 3.85932 8.91498 3.78588L7.33998 1.79213C7.32956 1.77864 7.31618 1.76772 7.30088 1.7602C7.28557 1.75269 7.26875 1.74878 7.2517 1.74878C7.23465 1.74878 7.21783 1.75269 7.20253 1.7602C7.18722 1.76772 7.17384 1.77864 7.16342 1.79213L5.58842 3.78588C5.5753 3.80256 5.56714 3.8226 5.56488 3.84371C5.56263 3.86481 5.56636 3.88612 5.57565 3.9052C5.58495 3.92428 5.59943 3.94036 5.61744 3.95159C5.63545 3.96282 5.65626 3.96875 5.67748 3.96869H6.68842V7.43744H3.21967V6.42494C3.21967 6.33119 3.1103 6.27807 3.03686 6.33588L1.04311 7.91088C1.02962 7.92131 1.01869 7.93468 1.01118 7.94999C1.00366 7.96529 0.999756 7.98211 0.999756 7.99916C0.999756 8.01621 1.00366 8.03303 1.01118 8.04834C1.01869 8.06364 1.02962 8.07702 1.04311 8.08744L3.0353 9.66244C3.10873 9.72026 3.21811 9.66869 3.21811 9.57338V8.56244H6.68686V12.0312H5.67436C5.58061 12.0312 5.52748 12.1406 5.5853 12.214L7.1603 14.2062C7.20561 14.264 7.29311 14.264 7.33686 14.2062L8.91186 12.214C8.96967 12.1406 8.91811 12.0312 8.8228 12.0312H7.81342V8.56244H11.2822V9.57494C11.2822 9.66869 11.3915 9.72182 11.465 9.66401L13.4572 8.08901C13.4706 8.07844 13.4815 8.06498 13.4891 8.04963C13.4966 8.03428 13.5006 8.01742 13.5008 8.00032C13.5009 7.98322 13.4972 7.9663 13.4899 7.95081C13.4827 7.93533 13.472 7.92168 13.4587 7.91088Z" fill="#898B96"/>
</svg>
