<svg width="20" height="20" viewBox="0 0 20 20" fill="none" xmlns="http://www.w3.org/2000/svg">
<path d="M5.07869 17C4.28562 17.0001 3.52432 16.6883 2.9591 16.132L2.89676 16.0697C2.61277 15.7926 2.38713 15.4614 2.23312 15.0958C2.07911 14.7301 1.99985 14.3373 2.00001 13.9405C1.99901 13.5109 2.08326 13.0854 2.2479 12.6887C2.41253 12.2919 2.65427 11.9318 2.9591 11.6291L10.3921 4.27766C11.1473 3.49133 12.1811 3.03312 13.271 3.00173C14.3608 2.97033 15.4193 3.36827 16.2185 4.10982C16.579 4.46938 16.8643 4.89709 17.0578 5.36803C17.2512 5.83896 17.349 6.3437 17.3455 6.85282C17.3412 7.42142 17.2246 7.98357 17.0024 8.50697C16.7802 9.03038 16.4568 9.50471 16.0507 9.90273L9.37062 16.5205C9.3291 16.5763 9.27591 16.6225 9.21476 16.6557C9.15361 16.6889 9.08595 16.7085 9.01649 16.7129C8.94703 16.7174 8.87744 16.7067 8.81253 16.6815C8.74763 16.6564 8.68898 16.6174 8.64066 16.5673C8.59233 16.5172 8.55549 16.4572 8.53269 16.3915C8.50988 16.3257 8.50167 16.2558 8.50862 16.1865C8.51556 16.1173 8.5375 16.0503 8.5729 15.9904C8.60831 15.9305 8.65633 15.879 8.71364 15.8395L15.3745 9.22177C15.6909 8.91298 15.9431 8.54475 16.1167 8.13822C16.2904 7.73169 16.382 7.29486 16.3864 6.85282C16.3898 6.47026 16.317 6.09085 16.1721 5.73678C16.0272 5.38272 15.8131 5.06111 15.5424 4.79077C14.9227 4.22628 14.1062 3.9276 13.2686 3.95899C12.4309 3.99038 11.6391 4.34933 11.0634 4.95861L3.65444 12.31C3.43611 12.522 3.26218 12.7754 3.14279 13.0553C3.02341 13.3353 2.96097 13.6362 2.9591 13.9405C2.95807 14.2077 3.01011 14.4725 3.11218 14.7194C3.21426 14.9664 3.36434 15.1906 3.55374 15.3791L3.61608 15.4415C4.04515 15.8366 4.61222 16.0474 5.19519 16.0286C5.77817 16.0098 6.33045 15.7628 6.73312 15.3408L13.1351 9.01077C13.2561 8.88836 13.3516 8.74303 13.4158 8.58329C13.48 8.42355 13.5117 8.2526 13.5091 8.08045C13.5102 7.93093 13.4814 7.78269 13.4246 7.64438C13.3678 7.50606 13.2841 7.38044 13.1782 7.27482C12.936 7.05275 12.6162 6.93481 12.2879 6.94648C11.9595 6.95814 11.6489 7.09846 11.4231 7.33716L7.01126 11.7106C6.92096 11.8003 6.79874 11.8504 6.67148 11.8499C6.54423 11.8495 6.42237 11.7985 6.3327 11.7082C6.24304 11.6179 6.19292 11.4957 6.19337 11.3684C6.19382 11.2412 6.2448 11.1193 6.3351 11.0297L10.7661 6.64182C11.1723 6.22573 11.7257 5.98599 12.3071 5.97433C12.8884 5.96266 13.451 6.18001 13.8736 6.57948C14.0679 6.77729 14.2206 7.01201 14.3227 7.26981C14.4249 7.5276 14.4743 7.80324 14.4682 8.08045C14.4677 8.37898 14.4076 8.67441 14.2915 8.94943C14.1754 9.22445 14.0056 9.47355 13.792 9.68214L7.40928 16.0313C6.79062 16.649 5.95292 16.9972 5.07869 17Z" fill="#383838"/>
</svg>
