<svg width="16" height="17" viewBox="0 0 16 17" fill="none" xmlns="http://www.w3.org/2000/svg">
<path d="M0.539946 4.37L0.499946 3.5C0.499946 2.96957 0.71066 2.46086 1.08573 2.08579C1.46081 1.71071 1.96951 1.5 2.49995 1.5H6.17195C6.70234 1.50011 7.21096 1.7109 7.58595 2.086L8.41395 2.914C8.78893 3.2891 9.29756 3.49989 9.82795 3.5H13.8099C14.0879 3.49997 14.3627 3.55787 14.617 3.66999C14.8713 3.78212 15.0995 3.94601 15.2869 4.15122C15.4743 4.35643 15.6169 4.59845 15.7056 4.86184C15.7943 5.12524 15.8271 5.40422 15.8019 5.681L15.1649 12.681C15.1198 13.1779 14.8905 13.64 14.5221 13.9766C14.1538 14.3131 13.6729 14.4998 13.1739 14.5H2.82595C2.32698 14.4998 1.84612 14.3131 1.47774 13.9766C1.10937 13.64 0.880102 13.1779 0.834946 12.681L0.197946 5.681C0.155332 5.21778 0.27634 4.75427 0.539946 4.371V4.37ZM2.18995 4.5C2.05103 4.49999 1.91364 4.52893 1.78653 4.58496C1.65942 4.64099 1.54537 4.72289 1.45167 4.82544C1.35796 4.92799 1.28665 5.04894 1.24228 5.18058C1.1979 5.31221 1.18144 5.45165 1.19395 5.59L1.83095 12.59C1.8534 12.8385 1.96791 13.0696 2.152 13.2379C2.3361 13.4063 2.57647 13.4998 2.82595 13.5H13.1739C13.4234 13.4998 13.6638 13.4063 13.8479 13.2379C14.032 13.0696 14.1465 12.8385 14.1689 12.59L14.8059 5.59C14.8184 5.45165 14.802 5.31221 14.7576 5.18058C14.7132 5.04894 14.6419 4.92799 14.5482 4.82544C14.4545 4.72289 14.3405 4.64099 14.2134 4.58496C14.0863 4.52893 13.9489 4.49999 13.8099 4.5H2.18995ZM6.87995 2.793C6.78699 2.70002 6.67661 2.62628 6.55512 2.576C6.43364 2.52572 6.30343 2.4999 6.17195 2.5H2.49995C2.23799 2.49995 1.98647 2.6027 1.79947 2.78614C1.61247 2.96959 1.50492 3.21909 1.49995 3.481L1.50595 3.62C1.71995 3.542 1.94995 3.5 2.18995 3.5H7.58595L6.87895 2.793H6.87995Z" fill="#898B96"/>
</svg>
