<svg width="20" height="20" viewBox="0 0 20 20" fill="none" xmlns="http://www.w3.org/2000/svg">
<path d="M6.401 7.24003C6.80054 7.04078 7.25279 6.97276 7.69327 7.04567C8.13374 7.11857 8.53996 7.32868 8.854 7.64603C8.94789 7.73992 9.00063 7.86725 9.00063 8.00003C9.00063 8.13281 8.94789 8.26014 8.854 8.35403C8.76011 8.44792 8.63278 8.50066 8.5 8.50066C8.36722 8.50066 8.23989 8.44792 8.146 8.35403C7.98066 8.18523 7.76616 8.07305 7.5332 8.03354C7.30025 7.99402 7.06076 8.0292 6.849 8.13403C6.437 8.34203 6 8.88603 6 10C6 11.115 6.437 11.66 6.849 11.865C7.278 12.08 7.796 11.997 8.146 11.646C8.23975 11.5521 8.36696 11.4993 8.49965 11.4993C8.63233 11.4992 8.75961 11.5518 8.8535 11.6455C8.94739 11.7393 9.00018 11.8665 9.00028 11.9992C9.00037 12.1319 8.94775 12.2591 8.854 12.353C8.54008 12.6705 8.13392 12.8808 7.69344 12.9539C7.25295 13.027 6.80064 12.9592 6.401 12.76C5.563 12.34 5 11.385 5 10C5 8.61503 5.563 7.66003 6.401 7.24003Z" fill="#F6DA2B"/>
<path d="M14.354 7.646C14.0399 7.32843 13.6335 7.11819 13.1928 7.04528C12.7521 6.97237 12.2997 7.04052 11.9 7.24C11.063 7.66 10.5 8.615 10.5 10C10.5 11.385 11.063 12.34 11.901 12.76C12.3005 12.9592 12.7528 13.0273 13.1933 12.9544C13.6337 12.8815 14.04 12.6713 14.354 12.354C14.4478 12.2601 14.5004 12.1328 14.5003 12.0001C14.5002 11.8675 14.4474 11.7403 14.3535 11.6465C14.2596 11.5527 14.1323 11.5001 13.9996 11.5002C13.867 11.5003 13.7398 11.5531 13.646 11.647C13.4804 11.8155 13.2658 11.9273 13.0329 11.9664C12.7999 12.0056 12.5606 11.9701 12.349 11.865C11.937 11.659 11.5 11.115 11.5 10C11.5 8.885 11.937 8.34 12.349 8.135C12.5607 8.03004 12.8001 7.99471 13.033 8.03404C13.266 8.07337 13.4805 8.18537 13.646 8.354C13.7399 8.44788 13.8672 8.50063 14 8.50063C14.1328 8.50063 14.2601 8.44788 14.354 8.354C14.4479 8.26011 14.5006 8.13277 14.5006 8C14.5006 7.86722 14.4479 7.73988 14.354 7.646Z" fill="#F6DA2B"/>
<path d="M2 7C2 6.20435 2.31607 5.44129 2.87868 4.87868C3.44129 4.31607 4.20435 4 5 4H15C15.7956 4 16.5587 4.31607 17.1213 4.87868C17.6839 5.44129 18 6.20435 18 7V13C18 13.7956 17.6839 14.5587 17.1213 15.1213C16.5587 15.6839 15.7956 16 15 16H5C4.20435 16 3.44129 15.6839 2.87868 15.1213C2.31607 14.5587 2 13.7956 2 13V7ZM5 5C4.46957 5 3.96086 5.21071 3.58579 5.58579C3.21071 5.96086 3 6.46957 3 7V13C3 13.5304 3.21071 14.0391 3.58579 14.4142C3.96086 14.7893 4.46957 15 5 15H15C15.5304 15 16.0391 14.7893 16.4142 14.4142C16.7893 14.0391 17 13.5304 17 13V7C17 6.46957 16.7893 5.96086 16.4142 5.58579C16.0391 5.21071 15.5304 5 15 5H5Z" fill="#383838"/>
</svg>
