<svg width="20" height="20" viewBox="0 0 20 20" fill="none" xmlns="http://www.w3.org/2000/svg">
<path d="M6.98165 3L6.98125 3L2.5 3C2.30109 3 2.11032 3.07902 1.96967 3.21967C1.82902 3.36032 1.75 3.55109 1.75 3.75V16.25C1.75 16.4489 1.82902 16.6397 1.96967 16.7803M6.98165 3L1.96967 16.7803M6.98165 3C7.08061 2.99992 7.17862 3.01943 7.27001 3.0574C7.3614 3.09538 7.44437 3.15106 7.51414 3.22125L7.5152 3.2223L9.64645 5.35355L9.79289 5.5H10H17.5C17.6989 5.5 17.8897 5.57902 18.0303 5.71967C18.171 5.86032 18.25 6.05109 18.25 6.25V16.25C18.25 16.4489 18.171 16.6397 18.0303 16.7803C17.8897 16.921 17.6989 17 17.5 17H2.5C2.30109 17 2.11032 16.921 1.96967 16.7803M6.98165 3L1.61612 17.1339L1.96967 16.7803M7.33429 3.39593L7.18793 3.25H6.98125H2.5H2V3.75V16.25V16.75H2.5H17.5H18V16.25V6.25V5.75H17.5H9.69086L9.47531 5.53073L9.47533 5.53071L9.47179 5.52718L7.33429 3.39593Z" fill="#383838" stroke="#383838"/>
</svg>
