<svg width="20" height="20" viewBox="0 0 20 20" fill="none" xmlns="http://www.w3.org/2000/svg">
<path d="M13.8539 7.85402C13.9478 7.76013 14.0005 7.6328 14.0005 7.50002C14.0005 7.36725 13.9478 7.23991 13.8539 7.14602C13.76 7.05213 13.6327 6.99939 13.4999 6.99939C13.3671 6.99939 13.2398 7.05213 13.1459 7.14602L8.4999 11.793L6.8539 10.146C6.76001 10.0521 6.63268 9.99939 6.4999 9.99939C6.36712 9.99939 6.23979 10.0521 6.1459 10.146C6.05201 10.2399 5.99927 10.3672 5.99927 10.5C5.99927 10.6328 6.05201 10.7601 6.1459 10.854L8.1459 12.854C8.19234 12.9006 8.24752 12.9375 8.30827 12.9627C8.36901 12.9879 8.43413 13.0009 8.4999 13.0009C8.56567 13.0009 8.63079 12.9879 8.69153 12.9627C8.75228 12.9375 8.80745 12.9006 8.8539 12.854L13.8539 7.85402Z" fill="#F6DA2B"/>
<path d="M5.682 3C4.97069 3 4.28851 3.28257 3.78554 3.78554C3.28257 4.28851 3 4.97069 3 5.682V14.318C3 15.8 4.2 17 5.682 17H14.318C15.8 17 17 15.8 17 14.318V5.682C17 4.2 15.8 3 14.318 3H5.682ZM4 5.682C4 4.753 4.753 4 5.682 4H14.318C15.247 4 16 4.753 16 5.682V14.318C16 15.247 15.247 16 14.318 16H5.682C5.23591 16 4.80808 15.8228 4.49265 15.5074C4.17721 15.1919 4 14.7641 4 14.318V5.682Z" fill="#383838"/>
</svg>
