<svg width="15" height="16" viewBox="0 0 15 16" fill="none" xmlns="http://www.w3.org/2000/svg">
<path d="M14.1125 3.96661L11.6666 1.50828C11.505 1.34747 11.2863 1.2572 11.0583 1.2572C10.8303 1.2572 10.6116 1.34747 10.45 1.50828L1.77913 10.1666L0.987463 13.5833C0.960153 13.7082 0.961089 13.8376 0.990203 13.9621C1.01932 14.0866 1.07587 14.203 1.15574 14.3028C1.23561 14.4027 1.33677 14.4834 1.45183 14.5391C1.56689 14.5949 1.69295 14.6242 1.8208 14.6249C1.88037 14.631 1.94039 14.631 1.99996 14.6249L5.45413 13.8333L14.1125 5.18328C14.2733 5.02166 14.3635 4.80294 14.3635 4.57495C14.3635 4.34695 14.2733 4.12824 14.1125 3.96661ZM5.03746 13.0833L1.79996 13.7624L2.53746 10.5874L9.02496 4.12495L11.525 6.62495L5.03746 13.0833ZM12.0833 6.02078L9.5833 3.52078L11.0333 2.07911L13.4916 4.57911L12.0833 6.02078Z" fill="#898B96"/>
</svg>
