<svg width="20" height="20" viewBox="0 0 20 20" fill="none" xmlns="http://www.w3.org/2000/svg">
<path d="M10.3253 5.70421L10.3406 5.68889C10.6357 5.84482 10.9682 5.92415 11.3071 5.91548C11.8081 5.90266 12.2852 5.69851 12.6404 5.34493L12.6416 5.34378L15.0502 2.93052L15.0502 2.93055L15.0545 2.92611C15.3138 2.65975 15.6679 2.50667 16.0397 2.50021C16.4074 2.49383 16.7629 2.63149 17.0304 2.88351C17.2789 3.14967 17.4144 3.50207 17.408 3.86644C17.4016 4.23474 17.2507 4.58578 16.9879 4.8439L16.9879 4.84388L16.9847 4.84707L14.5714 7.26032L14.5714 7.26026L14.5649 7.267C14.213 7.63226 14.0144 8.11837 14.0097 8.6255C14.0066 8.96813 14.0922 9.30278 14.2545 9.59845L14.2429 9.60997L10.3253 5.70421Z" fill="#F6DA2B" stroke="#383838"/>
<path d="M11.9942 9.38284L5.12314 16.2539C5.03805 16.3474 4.93485 16.4227 4.81978 16.4752C4.70472 16.5277 4.58019 16.5562 4.45376 16.5591C4.32733 16.562 4.20163 16.5392 4.0843 16.492C3.96696 16.4448 3.86042 16.3743 3.77116 16.2847C3.68189 16.1952 3.61176 16.0884 3.56501 15.9709C3.51826 15.8534 3.49588 15.7276 3.49921 15.6012C3.50255 15.4747 3.53153 15.3503 3.58441 15.2354C3.63729 15.1206 3.71295 15.0176 3.80681 14.9329L10.6732 8.08052L10.015 7.42236L3.14398 14.2747C2.8531 14.5619 2.66451 14.9367 2.60717 15.3414C2.54983 15.7462 2.62691 16.1586 2.82657 16.5153L2.13574 17.2061C2.0488 17.2936 2 17.4119 2 17.5352C2 17.6585 2.0488 17.7768 2.13574 17.8643C2.22319 17.9512 2.3415 18 2.46482 18C2.58813 18 2.70644 17.9512 2.7939 17.8643L3.46606 17.1921C3.75844 17.3753 4.09658 17.4724 4.44164 17.4722C4.69158 17.4721 4.93904 17.4225 5.16975 17.3264C5.40047 17.2303 5.6099 17.0894 5.78597 16.912L12.657 10.0457L11.9942 9.38284Z" fill="#383838"/>
</svg>
