<svg width="20" height="20" viewBox="0 0 20 20" fill="none" xmlns="http://www.w3.org/2000/svg">
<path fill-rule="evenodd" clip-rule="evenodd" d="M4.28562 2.38098H15.7142C16.2194 2.38098 16.7039 2.58166 17.0611 2.93887C17.4183 3.29609 17.619 3.78057 17.619 4.28574V15.7048C17.619 16.21 17.4183 16.6945 17.0611 17.0517C16.7039 17.4089 16.2194 17.6096 15.7142 17.6096H4.28562C3.78045 17.6096 3.29596 17.4089 2.93875 17.0517C2.58154 16.6945 2.38086 16.21 2.38086 15.7048V4.28574C2.38086 3.78057 2.58154 3.29609 2.93875 2.93887C3.29596 2.58166 3.78045 2.38098 4.28562 2.38098V2.38098Z" stroke="#383838" stroke-linecap="round" stroke-linejoin="round"/>
<path d="M2.53223 6.19055H17.6189" stroke="#383838" stroke-linecap="round" stroke-linejoin="round"/>
<path fill-rule="evenodd" clip-rule="evenodd" d="M6.49124 12.5286V11.5009H7.32934C7.96553 11.5009 8.39791 11.1247 8.39791 10.5752C8.39791 10.0733 8.00267 9.69236 7.34743 9.69236C6.66839 9.69236 6.25029 10.0409 6.20362 10.6409H4.90458C4.95315 9.40379 5.90553 8.57141 7.41696 8.57141C8.90553 8.57141 9.73315 9.39427 9.72839 10.3762C9.72362 11.1895 9.2122 11.7247 8.49124 11.9009V11.9895C9.42553 12.1238 9.99315 12.719 9.99315 13.6171C9.99315 14.7933 8.88648 15.6266 7.37029 15.6266C5.8541 15.6266 4.82172 14.7971 4.76172 13.5276H6.10553C6.14743 14.0952 6.63124 14.4581 7.3522 14.4581C8.06362 14.4581 8.56172 14.0714 8.56172 13.4905C8.56172 12.8952 8.096 12.5286 7.34267 12.5286H6.49124Z" fill="#F6DA2B"/>
<path fill-rule="evenodd" clip-rule="evenodd" d="M12.8723 15.4543V10.1104H12.7895L11.1428 11.2457V9.93901L12.8771 8.74377H14.2771V15.4543H12.8723Z" fill="#F6DA2B"/>
</svg>
