<svg width="20" height="20" viewBox="0 0 20 20" fill="none" xmlns="http://www.w3.org/2000/svg">
<g clip-path="url(#clip0_5:1157)">
<path fill-rule="evenodd" clip-rule="evenodd" d="M10 4.13336C9.85855 4.13336 9.7229 4.18955 9.62288 4.28957C9.52286 4.38959 9.46667 4.52525 9.46667 4.6667C9.46667 4.80814 9.52286 4.9438 9.62288 5.04382C9.7229 5.14384 9.85855 5.20003 10 5.20003H19.3333C19.4748 5.20003 19.6104 5.14384 19.7105 5.04382C19.8105 4.9438 19.8667 4.80814 19.8667 4.6667C19.8667 4.52525 19.8105 4.38959 19.7105 4.28957C19.6104 4.18955 19.4748 4.13336 19.3333 4.13336H10ZM10 6.80003C9.92996 6.80003 9.86061 6.81382 9.7959 6.84063C9.7312 6.86743 9.6724 6.90671 9.62288 6.95624C9.57335 7.00576 9.53407 7.06456 9.50727 7.12926C9.48046 7.19397 9.46667 7.26332 9.46667 7.33336C9.46667 7.4034 9.48046 7.47275 9.50727 7.53746C9.53407 7.60217 9.57335 7.66096 9.62288 7.71049C9.6724 7.76001 9.7312 7.79929 9.7959 7.8261C9.86061 7.8529 9.92996 7.8667 10 7.8667H19.3333C19.4748 7.8667 19.6104 7.8105 19.7105 7.71049C19.8105 7.61047 19.8667 7.47481 19.8667 7.33336C19.8667 7.19191 19.8105 7.05626 19.7105 6.95624C19.6104 6.85622 19.4748 6.80003 19.3333 6.80003H10ZM9.46667 10C9.46667 9.7067 9.70667 9.4667 10 9.4667H19.3333C19.4748 9.4667 19.6104 9.52289 19.7105 9.62291C19.8105 9.72292 19.8667 9.85858 19.8667 10C19.8667 10.1415 19.8105 10.2771 19.7105 10.3772C19.6104 10.4772 19.4748 10.5334 19.3333 10.5334H10C9.92996 10.5334 9.86061 10.5196 9.7959 10.4928C9.7312 10.466 9.6724 10.4267 9.62288 10.3772C9.57335 10.3276 9.53407 10.2688 9.50727 10.2041C9.48046 10.1394 9.46667 10.0701 9.46667 10ZM10 12.1334C9.85855 12.1334 9.7229 12.1896 9.62288 12.2896C9.52286 12.3896 9.46667 12.5252 9.46667 12.6667C9.46667 12.8081 9.52286 12.9438 9.62288 13.0438C9.7229 13.1438 9.85855 13.2 10 13.2H19.3333C19.4748 13.2 19.6104 13.1438 19.7105 13.0438C19.8105 12.9438 19.8667 12.8081 19.8667 12.6667C19.8667 12.5252 19.8105 12.3896 19.7105 12.2896C19.6104 12.1896 19.4748 12.1334 19.3333 12.1334H10ZM9.46667 15.3334C9.46667 15.04 9.70667 14.8 10 14.8H19.3333C19.4748 14.8 19.6104 14.8562 19.7105 14.9562C19.8105 15.0563 19.8667 15.1919 19.8667 15.3334C19.8667 15.4748 19.8105 15.6105 19.7105 15.7105C19.6104 15.8105 19.4748 15.8667 19.3333 15.8667H10C9.85855 15.8667 9.7229 15.8105 9.62288 15.7105C9.52286 15.6105 9.46667 15.4748 9.46667 15.3334ZM3.33333 12.3334L6.66667 8.00003H0L3.33333 12.3334Z" fill="#F6DA2B"/>
<path fill-rule="evenodd" clip-rule="evenodd" d="M9.62276 4.28957C9.72278 4.18955 9.85844 4.13336 9.99989 4.13336H19.3332C19.4747 4.13336 19.6103 4.18955 19.7103 4.28957C19.8104 4.38959 19.8666 4.52525 19.8666 4.6667C19.8666 4.80814 19.8104 4.9438 19.7103 5.04382C19.6103 5.14384 19.4747 5.20003 19.3332 5.20003H9.99989C9.85844 5.20003 9.72278 5.14384 9.62276 5.04382C9.52274 4.9438 9.46655 4.80814 9.46655 4.6667C9.46655 4.52525 9.52274 4.38959 9.62276 4.28957ZM9.79579 6.84063C9.86049 6.81382 9.92985 6.80003 9.99989 6.80003H19.3332C19.4747 6.80003 19.6103 6.85622 19.7103 6.95624C19.8104 7.05626 19.8666 7.19191 19.8666 7.33336C19.8666 7.47481 19.8104 7.61047 19.7103 7.71049C19.6103 7.8105 19.4747 7.8667 19.3332 7.8667H9.99989C9.92985 7.8667 9.86049 7.8529 9.79579 7.8261C9.73108 7.79929 9.67229 7.76001 9.62276 7.71049C9.57324 7.66096 9.53395 7.60217 9.50715 7.53746C9.48035 7.47275 9.46655 7.4034 9.46655 7.33336C9.46655 7.26332 9.48035 7.19397 9.50715 7.12926C9.53395 7.06456 9.57324 7.00576 9.62276 6.95624C9.67229 6.90671 9.73108 6.86743 9.79579 6.84063ZM9.99989 9.4667C9.70655 9.4667 9.46655 9.7067 9.46655 10C9.46655 10.0701 9.48035 10.1394 9.50715 10.2041C9.53395 10.2688 9.57324 10.3276 9.62276 10.3772C9.67229 10.4267 9.73108 10.466 9.79579 10.4928C9.86049 10.5196 9.92985 10.5334 9.99989 10.5334H19.3332C19.4747 10.5334 19.6103 10.4772 19.7103 10.3772C19.8104 10.2771 19.8666 10.1415 19.8666 10C19.8666 9.85858 19.8104 9.72292 19.7103 9.62291C19.6103 9.52289 19.4747 9.4667 19.3332 9.4667H9.99989ZM9.62276 12.2896C9.72278 12.1896 9.85844 12.1334 9.99989 12.1334H19.3332C19.4747 12.1334 19.6103 12.1896 19.7103 12.2896C19.8104 12.3896 19.8666 12.5252 19.8666 12.6667C19.8666 12.8081 19.8104 12.9438 19.7103 13.0438C19.6103 13.1438 19.4747 13.2 19.3332 13.2H9.99989C9.85844 13.2 9.72278 13.1438 9.62276 13.0438C9.52274 12.9438 9.46655 12.8081 9.46655 12.6667C9.46655 12.5252 9.52274 12.3896 9.62276 12.2896ZM9.99989 14.8C9.70655 14.8 9.46655 15.04 9.46655 15.3334C9.46655 15.4748 9.52274 15.6105 9.62276 15.7105C9.72278 15.8105 9.85844 15.8667 9.99989 15.8667H19.3332C19.4747 15.8667 19.6103 15.8105 19.7103 15.7105C19.8104 15.6105 19.8666 15.4748 19.8666 15.3334C19.8666 15.1919 19.8104 15.0563 19.7103 14.9562C19.6103 14.8562 19.4747 14.8 19.3332 14.8H9.99989Z" fill="#383838"/>
</g>
<defs>
<clipPath id="clip0_5:1157">
<rect width="20" height="20" fill="white"/>
</clipPath>
</defs>
</svg>
