<svg width="20" height="20" viewBox="0 0 20 20" fill="none" xmlns="http://www.w3.org/2000/svg">
<path d="M7.11675 7.11671C7.40841 7.40837 7.42508 7.85004 7.20008 8.19171C6.85265 8.73084 6.66788 9.35865 6.66788 10C6.66788 10.6414 6.85265 11.2692 7.20008 11.8084C7.42508 12.15 7.40008 12.6 7.10841 12.8834C6.75008 13.2417 6.13341 13.2167 5.85008 12.7917C5.29522 11.9665 4.99926 10.9945 5.00008 10C5.00008 8.99171 5.30008 8.05837 5.80841 7.26671C6.10841 6.81671 6.73342 6.73337 7.11675 7.11671ZM12.8834 12.8834C13.2417 13.2417 13.8584 13.2167 14.1417 12.7917C14.7008 11.9665 14.9996 10.9926 14.9996 9.99587C14.9996 8.99912 14.7008 8.02526 14.1417 7.20004C13.8584 6.78337 13.2417 6.75004 12.8834 7.10837C12.5917 7.40004 12.5751 7.84171 12.7917 8.18337C13.1437 8.722 13.3319 9.35119 13.3334 9.99464C13.3348 10.6381 13.1496 11.2681 12.8001 11.8084C12.5751 12.15 12.6001 12.6 12.8834 12.8834ZM10.0001 8.33337C9.08342 8.33337 8.33342 9.08337 8.33342 10C8.33342 10.9167 9.08342 11.6667 10.0001 11.6667C10.9167 11.6667 11.6667 10.9167 11.6667 10C11.6667 9.08337 10.9167 8.33337 10.0001 8.33337ZM15.2667 15.2667C15.6167 15.6167 16.2001 15.5917 16.5167 15.2C17.6501 13.775 18.3334 11.9667 18.3334 10C18.3334 8.03337 17.6501 6.22504 16.5167 4.80004C16.2084 4.40837 15.6251 4.38337 15.2667 4.73337C14.9667 5.03337 14.9334 5.50004 15.2001 5.83337C16.1167 6.97504 16.6667 8.42504 16.6667 10C16.6667 11.575 16.1167 13.025 15.2001 14.1667C14.9334 14.4917 14.9667 14.9667 15.2667 15.2667ZM4.73341 4.73337C4.38341 4.38337 3.80008 4.40837 3.48341 4.80004C2.35008 6.22504 1.66675 8.03337 1.66675 10C1.66675 11.9667 2.35008 13.775 3.48341 15.2C3.79175 15.5917 4.37508 15.6167 4.73341 15.2667C5.03341 14.9667 5.06675 14.5 4.80008 14.1667C3.88341 13.025 3.33341 11.575 3.33341 10C3.33341 8.42504 3.88341 6.97504 4.80008 5.83337C5.06675 5.50837 5.03341 5.03337 4.73341 4.73337Z" fill="#383838"/>
</svg>
