<svg width="20" height="20" viewBox="0 0 20 20" fill="none" xmlns="http://www.w3.org/2000/svg">
<path d="M14 7.5C14 7.69698 13.9612 7.89204 13.8858 8.07403C13.8104 8.25601 13.6999 8.42137 13.5607 8.56066C13.4214 8.69995 13.256 8.81044 13.074 8.88582C12.892 8.9612 12.697 9 12.5 9C12.303 9 12.108 8.9612 11.926 8.88582C11.744 8.81044 11.5786 8.69995 11.4393 8.56066C11.3001 8.42137 11.1896 8.25601 11.1142 8.07403C11.0388 7.89204 11 7.69698 11 7.5C11 7.10218 11.158 6.72064 11.4393 6.43934C11.7206 6.15804 12.1022 6 12.5 6C12.8978 6 13.2794 6.15804 13.5607 6.43934C13.842 6.72064 14 7.10218 14 7.5ZM13 7.5C13 7.36739 12.9473 7.24021 12.8536 7.14645C12.7598 7.05268 12.6326 7 12.5 7C12.3674 7 12.2402 7.05268 12.1464 7.14645C12.0527 7.24021 12 7.36739 12 7.5C12 7.63261 12.0527 7.75979 12.1464 7.85355C12.2402 7.94732 12.3674 8 12.5 8C12.6326 8 12.7598 7.94732 12.8536 7.85355C12.9473 7.75979 13 7.63261 13 7.5ZM3 6C3 5.20435 3.31607 4.44129 3.87868 3.87868C4.44129 3.31607 5.20435 3 6 3H14C14.7956 3 15.5587 3.31607 16.1213 3.87868C16.6839 4.44129 17 5.20435 17 6V14C17 14.7956 16.6839 15.5587 16.1213 16.1213C15.5587 16.6839 14.7956 17 14 17H6C5.20435 17 4.44129 16.6839 3.87868 16.1213C3.31607 15.5587 3 14.7956 3 14V6ZM6 4C5.46957 4 4.96086 4.21071 4.58579 4.58579C4.21071 4.96086 4 5.46957 4 6V14C4 14.373 4.102 14.722 4.28 15.02L8.949 10.432C9.22948 10.1566 9.60689 10.0022 10 10.0022C10.3931 10.0022 10.7705 10.1566 11.051 10.432L15.721 15.02C15.9043 14.7114 16.0007 14.3589 16 14V6C16 5.46957 15.7893 4.96086 15.4142 4.58579C15.0391 4.21071 14.5304 4 14 4H6ZM6 16H14C14.37 16 14.715 15.9 15.012 15.726L10.35 11.146C10.2565 11.0544 10.1309 11.0031 10 11.0031C9.86912 11.0031 9.74346 11.0544 9.65 11.146L4.988 15.726C5.29478 15.9062 5.64424 16.0008 6 16Z" fill="#F6DA2B"/>
<path fill-rule="evenodd" clip-rule="evenodd" d="M3.87868 3.87868C3.31607 4.44129 3 5.20435 3 6V14C3 14.7956 3.31607 15.5587 3.87868 16.1213C4.44129 16.6839 5.20435 17 6 17H14C14.7956 17 15.5587 16.6839 16.1213 16.1213C16.6839 15.5587 17 14.7956 17 14V6C17 5.20435 16.6839 4.44129 16.1213 3.87868C15.5587 3.31607 14.7956 3 14 3H6C5.20435 3 4.44129 3.31607 3.87868 3.87868ZM4.00473 14.1387C4.00159 14.0929 4 14.0466 4 14V6C4 4.89543 4.89543 4 6 4H14C15.1046 4 16 4.89543 16 6V14C16.0007 14.3589 15.9043 14.7114 15.721 15.02L15.7208 15.0198C15.548 15.3108 15.3035 15.5542 15.0116 15.7256L15.012 15.726C14.7336 15.8891 14.4129 15.9872 14.0691 15.9988C14.0462 15.9996 14.0231 16 14 16H6C5.64424 16.0008 5.29478 15.9062 4.988 15.726L4.98836 15.7256C4.51754 15.449 4.16994 14.9853 4.04778 14.4365C4.02622 14.3397 4.01168 14.2403 4.00473 14.1387Z" fill="#383838"/>
</svg>
