<svg width="20" height="20" viewBox="0 0 20 20" fill="none" xmlns="http://www.w3.org/2000/svg">
<path d="M9.105 6.011C9.16923 6.02477 9.23011 6.05106 9.28417 6.08837C9.33823 6.12568 9.38441 6.17328 9.42007 6.22844C9.45573 6.2836 9.48017 6.34525 9.492 6.40986C9.50383 6.47447 9.50281 6.54078 9.489 6.605L9.19 8H11.667L12.01 6.395C12.0378 6.26531 12.1161 6.15199 12.2275 6.07998C12.3389 6.00796 12.4743 5.98315 12.604 6.011C12.7337 6.03885 12.847 6.11707 12.919 6.22847C12.991 6.33987 13.0158 6.47531 12.988 6.605L12.69 8H13.501C13.6336 8 13.7608 8.05268 13.8546 8.14645C13.9483 8.24021 14.001 8.36739 14.001 8.5C14.001 8.63261 13.9483 8.75979 13.8546 8.85355C13.7608 8.94732 13.6336 9 13.501 9H12.476L12.048 11H13C13.1326 11 13.2598 11.0527 13.3536 11.1464C13.4473 11.2402 13.5 11.3674 13.5 11.5C13.5 11.6326 13.4473 11.7598 13.3536 11.8536C13.2598 11.9473 13.1326 12 13 12H11.833L11.489 13.604C11.4612 13.7337 11.3829 13.847 11.2715 13.919C11.1601 13.991 11.0247 14.0158 10.895 13.988C10.7653 13.9602 10.652 13.8819 10.58 13.7705C10.508 13.6591 10.4832 13.5237 10.511 13.394L10.81 12H8.333L7.989 13.605C7.97521 13.6692 7.94891 13.7301 7.9116 13.7841C7.87428 13.8382 7.82669 13.8844 7.77153 13.92C7.66013 13.992 7.52469 14.0168 7.395 13.989C7.26531 13.9612 7.15199 13.8829 7.07998 13.7715C7.00796 13.6601 6.98315 13.5247 7.011 13.395L7.311 12H6.5C6.36739 12 6.24021 11.9473 6.14645 11.8536C6.05268 11.7598 6 11.6326 6 11.5C6 11.3674 6.05268 11.2402 6.14645 11.1464C6.24021 11.0527 6.36739 11 6.5 11H7.524L7.954 9H7C6.86739 9 6.74021 8.94732 6.64645 8.85355C6.55268 8.75979 6.5 8.63261 6.5 8.5C6.5 8.36739 6.55268 8.24021 6.64645 8.14645C6.74021 8.05268 6.86739 8 7 8H8.167L8.511 6.395C8.52477 6.33077 8.55106 6.26989 8.58837 6.21583C8.62568 6.16177 8.67328 6.11559 8.72844 6.07993C8.7836 6.04427 8.84525 6.01982 8.90986 6.008C8.97447 5.99617 9.04078 5.99719 9.105 6.011ZM8.547 11H11.024L11.453 9H8.976L8.547 11ZM3 5.5C3 4.83696 3.26339 4.20107 3.73223 3.73223C4.20107 3.26339 4.83696 3 5.5 3H14.5C15.163 3 15.7989 3.26339 16.2678 3.73223C16.7366 4.20107 17 4.83696 17 5.5V14.5C17 15.163 16.7366 15.7989 16.2678 16.2678C15.7989 16.7366 15.163 17 14.5 17H5.5C4.83696 17 4.20107 16.7366 3.73223 16.2678C3.26339 15.7989 3 15.163 3 14.5V5.5ZM5.5 4C5.10218 4 4.72064 4.15804 4.43934 4.43934C4.15804 4.72064 4 5.10218 4 5.5V14.5C4 14.8978 4.15804 15.2794 4.43934 15.5607C4.72064 15.842 5.10218 16 5.5 16H14.5C14.8978 16 15.2794 15.842 15.5607 15.5607C15.842 15.2794 16 14.8978 16 14.5V5.5C16 5.10218 15.842 4.72064 15.5607 4.43934C15.2794 4.15804 14.8978 4 14.5 4H5.5Z" fill="#F6DA2B"/>
<path fill-rule="evenodd" clip-rule="evenodd" d="M12.4869 6H12.5112C12.5031 5.9998 12.4949 5.9998 12.4869 6ZM8.98672 6H9.01306C9.00428 5.99977 8.9955 5.99977 8.98672 6ZM3.73223 3.73223C3.26339 4.20107 3 4.83696 3 5.5V14.5C3 15.163 3.26339 15.7989 3.73223 16.2678C4.20107 16.7366 4.83696 17 5.5 17H14.5C15.163 17 15.7989 16.7366 16.2678 16.2678C16.7366 15.7989 17 15.163 17 14.5V5.5C17 4.83696 16.7366 4.20107 16.2678 3.73223C15.7989 3.26339 15.163 3 14.5 3H5.5C4.83696 3 4.20107 3.26339 3.73223 3.73223ZM4.43934 4.43934C4.72064 4.15804 5.10218 4 5.5 4H14.5C14.8978 4 15.2794 4.15804 15.5607 4.43934C15.842 4.72064 16 5.10218 16 5.5V14.5C16 14.8978 15.842 15.2794 15.5607 15.5607C15.2794 15.842 14.8978 16 14.5 16H5.5C5.10218 16 4.72064 15.842 4.43934 15.5607C4.15804 15.2794 4 14.8978 4 14.5V5.5C4 5.10218 4.15804 4.72064 4.43934 4.43934Z" fill="#383838"/>
</svg>
