<svg width="20" height="20" viewBox="0 0 20 20" fill="none" xmlns="http://www.w3.org/2000/svg">
<path d="M13.0936 11.2813C13.2108 11.3986 13.2767 11.5575 13.2767 11.7233C13.2767 11.8891 13.2108 12.0481 13.0936 12.1653L10.442 14.817C10.4384 14.8205 10.4345 14.8236 10.4309 14.827C10.4198 14.8376 10.4087 14.8481 10.3969 14.8578C10.3918 14.862 10.3863 14.8656 10.3812 14.8695C10.3702 14.878 10.3592 14.8866 10.3476 14.8944C10.3434 14.8973 10.3387 14.8996 10.3344 14.9023C10.3215 14.9105 10.3086 14.9187 10.295 14.9259C10.2919 14.9277 10.2884 14.9291 10.2852 14.9307C10.2703 14.9384 10.2552 14.9458 10.2396 14.9522C10.2375 14.9531 10.2352 14.9537 10.233 14.9545C10.2164 14.9614 10.1994 14.9675 10.1822 14.9728C10.1799 14.9736 10.1776 14.9739 10.1754 14.9746C10.1581 14.9798 10.1407 14.9841 10.123 14.9877C10.118 14.9888 10.1127 14.9892 10.1077 14.9901C10.0927 14.9927 10.0777 14.9953 10.0623 14.9968C10.0209 15.001 9.97906 15.001 9.93758 14.9968C9.92219 14.9952 9.90719 14.9927 9.89227 14.9901C9.88719 14.9891 9.88203 14.9888 9.87703 14.9877C9.85935 14.9841 9.84183 14.9798 9.82453 14.9746C9.82234 14.9739 9.82008 14.9735 9.81781 14.9728C9.80063 14.9675 9.78368 14.9614 9.76703 14.9546L9.76039 14.9523C9.74492 14.9457 9.72973 14.9385 9.71484 14.9307C9.71164 14.9291 9.7082 14.9277 9.705 14.926C9.69159 14.9186 9.67846 14.9107 9.66563 14.9023C9.66125 14.8996 9.65664 14.8973 9.65234 14.8944C9.64078 14.8866 9.62984 14.878 9.61883 14.8695C9.61367 14.8656 9.6082 14.862 9.6032 14.8578C9.59148 14.848 9.58012 14.8377 9.56914 14.827C9.56547 14.8236 9.56164 14.8205 9.55805 14.817L6.90641 12.1653C6.78917 12.0481 6.7233 11.8891 6.72329 11.7233C6.72327 11.5576 6.78911 11.3986 6.90633 11.2813C7.02354 11.1641 7.18253 11.0982 7.3483 11.0982C7.51408 11.0982 7.67308 11.164 7.79031 11.2812L9.375 12.8662V8.125C9.375 7.95924 9.44085 7.80027 9.55806 7.68306C9.67527 7.56585 9.83424 7.5 10 7.5C10.1658 7.5 10.3247 7.56585 10.4419 7.68306C10.5592 7.80027 10.625 7.95924 10.625 8.125V12.8662L12.2097 11.2813C12.3269 11.1641 12.4859 11.0983 12.6516 11.0983C12.8174 11.0983 12.9764 11.1641 13.0936 11.2813ZM17.5 5.625V16.25C17.4996 16.5814 17.3678 16.8991 17.1335 17.1335C16.8991 17.3678 16.5814 17.4996 16.25 17.5H3.75C3.41859 17.4996 3.10087 17.3678 2.86653 17.1335C2.63219 16.8991 2.50037 16.5814 2.5 16.25V5.625C2.50007 5.60192 2.5014 5.57887 2.50398 5.55594C2.50469 5.55023 2.50586 5.54461 2.50664 5.53891C2.50898 5.52164 2.5118 5.50453 2.51563 5.48773C2.51703 5.48133 2.51883 5.47516 2.52047 5.46875C2.52626 5.44621 2.5333 5.42402 2.54156 5.40227C2.5475 5.38685 2.55401 5.37174 2.56109 5.35695C2.56281 5.3532 2.56406 5.34914 2.56602 5.34547L3.81602 2.84547C3.86792 2.74166 3.94771 2.65436 4.04644 2.59334C4.14517 2.53232 4.25894 2.5 4.375 2.5H15.625C15.7411 2.5 15.8548 2.53232 15.9536 2.59334C16.0523 2.65436 16.1321 2.74166 16.184 2.84547L17.434 5.34547C17.4359 5.34922 17.4371 5.3532 17.439 5.35695C17.456 5.39283 17.4696 5.43023 17.4795 5.46867C17.4811 5.47508 17.483 5.48141 17.4844 5.48781C17.4881 5.50453 17.4909 5.52148 17.4934 5.53875C17.4941 5.54445 17.4953 5.55023 17.496 5.55594C17.4986 5.57887 17.4999 5.60192 17.5 5.625ZM4.13625 5H15.8638L15.2388 3.75H4.76125L4.13625 5ZM16.2508 16.25L16.25 6.25H3.75V16.25H16.2508Z" fill="#383838"/>
</svg>
