<svg width="20" height="20" viewBox="0 0 20 20" fill="none" xmlns="http://www.w3.org/2000/svg">
<path d="M5.82062 2.5C5.34937 2.5 4.94125 2.72937 4.57063 3.04688C4.19938 3.36437 3.8575 3.79125 3.555 4.33625C2.94875 5.4275 2.5 6.95812 2.5 8.8675C2.5 9.84625 2.72687 10.855 3.18375 11.66C3.28375 11.8363 3.4475 11.9531 3.57437 12.1094C3.235 12.5244 2.67563 13.3006 2.67563 13.3006L3.575 14.2C3.575 14.2 4.195 13.3456 4.59062 12.8719C4.84187 12.9794 5.07875 13.1256 5.37188 13.1256C6.44375 13.1256 7.56188 12.6569 8.59438 12.0706C8.92625 12.325 9.3 12.5006 9.68813 12.5006C10.9725 12.5006 11.9487 11.7462 12.6375 11.075C12.8375 10.8794 12.9719 10.7356 13.1256 10.5669C13.1231 10.7381 13.1181 10.8944 13.165 11.0944C13.2012 11.2456 13.2431 11.4337 13.3994 11.6025C13.5556 11.7706 13.8362 11.8756 14.0631 11.8756C14.5194 11.8756 14.7831 11.6656 15.0594 11.4656C15.335 11.2656 15.5969 11.0262 15.8794 10.8012C16.4475 10.3519 17.0538 10 17.5 10V8.75C16.5087 8.75 15.735 9.33625 15.1169 9.82438C14.8244 10.0556 14.5606 10.2587 14.3556 10.41V10.3319C14.3625 10.105 14.3969 9.85063 14.3556 9.57062C14.331 9.40036 14.2637 9.2391 14.16 9.10187C14.0306 8.91875 13.74 8.75 13.4963 8.75C13.1444 8.75 13.015 8.90125 12.8906 9.00375C12.7656 9.10625 12.6731 9.21125 12.5588 9.33563C12.3294 9.585 12.0556 9.88562 11.7575 10.1756C11.2325 10.6881 10.615 11.0769 9.94125 11.1719C10.3881 10.8131 10.8375 10.4562 11.1525 10.0588C11.5675 9.53625 11.875 9.00375 11.875 8.37875C11.875 8.0275 11.8313 7.54625 11.5625 7.09C11.2937 6.63375 10.7156 6.25 10 6.25C9.23125 6.25 8.53 6.62812 8.10563 7.22687C7.68062 7.825 7.5 8.59125 7.5 9.49188C7.5 10.105 7.63938 10.6125 7.83187 11.0544C6.96313 11.5119 6.0625 11.875 5.37125 11.875C6.42812 10.2906 7.5 8.1325 7.5 5.5075C7.5 4.96375 7.505 4.32125 7.32438 3.73062C7.23375 3.435 7.09 3.135 6.83625 2.89062C6.58125 2.64688 6.20625 2.5 5.82 2.5H5.82062ZM5.82062 3.75C5.93312 3.75 5.9375 3.77187 5.97687 3.80875C6.01562 3.845 6.06188 3.93562 6.11313 4.10125C6.21312 4.43125 6.25 4.9875 6.25 5.5075C6.25 7.72188 5.3025 9.66062 4.35562 11.1137C4.33375 11.0763 4.29937 11.0744 4.2775 11.035C3.9525 10.4662 3.75 9.63875 3.75 8.8675C3.75 7.15062 4.16 5.82 4.64875 4.94125C4.8925 4.50188 5.14375 4.18 5.37125 3.98438C5.59812 3.78875 5.79125 3.75 5.82062 3.75ZM10 7.5C10.3469 7.5 10.3981 7.58313 10.4881 7.73438C10.5787 7.88562 10.625 8.16625 10.625 8.37875C10.625 8.535 10.4938 8.89875 10.1756 9.29688C9.9 9.64375 9.48 10.0025 9.02375 10.3519C8.91375 10.1 8.75 9.91687 8.75 9.4925C8.75 8.7675 8.90375 8.2375 9.12125 7.93C9.33812 7.62187 9.5825 7.5 10 7.5ZM2.5 16.25V17.5H17.5V16.25H2.5Z" fill="#F6DA2B"/>
<path fill-rule="evenodd" clip-rule="evenodd" d="M4.57063 3.04688C4.94125 2.72937 5.34937 2.5 5.82062 2.5H5.82C6.20625 2.5 6.58125 2.64688 6.83625 2.89062C7.09 3.135 7.23375 3.435 7.32438 3.73062C7.50028 4.30583 7.50013 4.93023 7.50001 5.46471C7.5 5.47904 7.5 5.4933 7.5 5.5075C7.5 8.1325 6.42812 10.2906 5.37125 11.875C6.0625 11.875 6.96313 11.5119 7.83187 11.0544C7.63938 10.6125 7.5 10.105 7.5 9.49188C7.5 8.59125 7.68062 7.825 8.10563 7.22687C8.53 6.62812 9.23125 6.25 10 6.25C10.7156 6.25 11.2937 6.63375 11.5625 7.09C11.8313 7.54625 11.875 8.0275 11.875 8.37875C11.875 9.00375 11.5675 9.53625 11.1525 10.0588C10.8455 10.4461 10.4109 10.7949 9.97541 11.1445C9.96402 11.1536 9.95263 11.1627 9.94125 11.1719C10.615 11.0769 11.2325 10.6881 11.7575 10.1756C12.0336 9.90705 12.2888 9.62936 12.5072 9.3917C12.5246 9.37275 12.5418 9.35405 12.5588 9.33563C12.5709 9.32244 12.5828 9.30947 12.5945 9.29669C12.6931 9.18901 12.7789 9.09538 12.8906 9.00375C12.9049 8.99202 12.9192 8.97965 12.9339 8.96694C13.0475 8.86861 13.1846 8.75 13.4963 8.75C13.74 8.75 14.0306 8.91875 14.16 9.10187C14.2637 9.2391 14.331 9.40036 14.3556 9.57062C14.3865 9.78029 14.375 9.97558 14.3644 10.1557C14.3608 10.2162 14.3574 10.2749 14.3556 10.3319V10.41C14.5606 10.2587 14.8244 10.0556 15.1169 9.82438C15.735 9.33625 16.5087 8.75 17.5 8.75V10C17.0538 10 16.4475 10.3519 15.8794 10.8012C15.771 10.8876 15.6657 10.976 15.5614 11.0635C15.3939 11.2041 15.2293 11.3423 15.0594 11.4656C15.0451 11.476 15.0308 11.4863 15.0166 11.4967C14.7553 11.6868 14.4958 11.8756 14.0631 11.8756C13.8362 11.8756 13.5556 11.7706 13.3994 11.6025C13.2472 11.4382 13.2035 11.2554 13.1679 11.1063C13.1669 11.1023 13.1659 11.0983 13.165 11.0944C13.1204 10.9043 13.1228 10.7537 13.1252 10.5922C13.1254 10.5838 13.1255 10.5753 13.1256 10.5669C12.9719 10.7356 12.8375 10.8794 12.6375 11.075C11.9487 11.7462 10.9725 12.5006 9.68813 12.5006C9.3 12.5006 8.92625 12.325 8.59438 12.0706C7.56188 12.6569 6.44375 13.1256 5.37188 13.1256C5.13989 13.1256 4.94313 13.034 4.7466 12.9425C4.6948 12.9184 4.64303 12.8943 4.59062 12.8719C4.195 13.3456 3.575 14.2 3.575 14.2L2.67563 13.3006C2.67563 13.3006 3.235 12.5244 3.57437 12.1094C3.52585 12.0496 3.47194 11.9956 3.41826 11.9419C3.33158 11.855 3.24551 11.7688 3.18375 11.66C2.72687 10.855 2.5 9.84625 2.5 8.8675C2.5 6.95812 2.94875 5.4275 3.555 4.33625C3.8575 3.79125 4.19938 3.36437 4.57063 3.04688ZM5.9626 3.79476C5.93439 3.76641 5.91806 3.75 5.82062 3.75C5.79125 3.75 5.59812 3.78875 5.37125 3.98438C5.14375 4.18 4.8925 4.50188 4.64875 4.94125C4.16 5.82 3.75 7.15062 3.75 8.8675C3.75 9.63875 3.9525 10.4662 4.2775 11.035C4.28866 11.0551 4.30308 11.0654 4.31743 11.0757C4.3312 11.0856 4.34491 11.0954 4.35562 11.1137C5.3025 9.66062 6.25 7.72188 6.25 5.5075C6.25 4.9875 6.21312 4.43125 6.11313 4.10125C6.06188 3.93562 6.01562 3.845 5.97687 3.80875C5.9716 3.80381 5.96696 3.79915 5.9626 3.79476ZM10.4881 7.73438C10.3981 7.58313 10.3469 7.5 10 7.5C9.5825 7.5 9.33812 7.62187 9.12125 7.93C8.90375 8.2375 8.75 8.7675 8.75 9.4925C8.75 9.81658 8.8455 9.99997 8.93963 10.1807C8.96876 10.2367 8.99775 10.2924 9.02375 10.3519C9.48 10.0025 9.9 9.64375 10.1756 9.29688C10.4938 8.89875 10.625 8.535 10.625 8.37875C10.625 8.16625 10.5787 7.88562 10.4881 7.73438Z" fill="#383838"/>
</svg>
