<svg width="20" height="20" viewBox="0 0 20 20" fill="none" xmlns="http://www.w3.org/2000/svg">
<path d="M6.00016 9.33333H5.3335V10.6667H6.00016V9.33333ZM14.0002 10.6667H14.6668V9.33333H14.0002V10.6667ZM6.00016 5.33333H5.3335V6.66667H6.00016V5.33333ZM8.66683 6.66667H9.3335V5.33333H8.66683V6.66667ZM14.0002 0.666667L14.4722 0.194667L14.2762 0H14.0002V0.666667ZM18.0002 4.66667H18.6668V4.39067L18.4722 4.19467L18.0002 4.66667ZM10.6668 14.6667L10.1948 15.1387L10.6668 14.6667ZM10.0002 15.3333L10.2988 15.9293L10.3522 15.9027L10.4002 15.8667L10.0002 15.3333ZM6.00016 10.6667H14.0002V9.33333H6.00016V10.6667ZM6.00016 6.66667H8.66683V5.33333H6.00016V6.66667ZM16.6668 18.6667H3.3335V20H16.6668V18.6667ZM2.66683 18V2H1.3335V18H2.66683ZM3.3335 1.33333H14.0002V0H3.3335V1.33333ZM17.3335 4.66667V18H18.6668V4.66667H17.3335ZM13.5282 1.13867L17.5282 5.13867L18.4722 4.19467L14.4722 0.194667L13.5282 1.13867ZM3.3335 18.6667C3.15669 18.6667 2.98712 18.5964 2.86209 18.4714C2.73707 18.3464 2.66683 18.1768 2.66683 18H1.3335C1.3335 18.5304 1.54421 19.0391 1.91928 19.4142C2.29436 19.7893 2.80306 20 3.3335 20V18.6667ZM16.6668 20C17.1973 20 17.706 19.7893 18.081 19.4142C18.4561 19.0391 18.6668 18.5304 18.6668 18H17.3335C17.3335 18.1768 17.2633 18.3464 17.1382 18.4714C17.0132 18.5964 16.8436 18.6667 16.6668 18.6667V20ZM2.66683 2C2.66683 1.82319 2.73707 1.65362 2.86209 1.5286C2.98712 1.40357 3.15669 1.33333 3.3335 1.33333V0C2.80306 0 2.29436 0.210714 1.91928 0.585786C1.54421 0.960859 1.3335 1.46957 1.3335 2H2.66683ZM7.29883 15.544C7.44683 15.1 7.86816 14.688 8.4055 14.544C8.90816 14.4093 9.55483 14.4973 10.1948 15.1387L11.1388 14.1947C10.1788 13.2347 9.04683 12.9907 8.06016 13.256C7.1095 13.512 6.33083 14.2333 6.0335 15.1227L7.30016 15.544H7.29883ZM10.1948 15.1387C10.2323 15.1751 10.2675 15.2138 10.3002 15.2547L11.3535 14.436C11.287 14.3516 11.2153 14.2715 11.1388 14.196L10.1948 15.1387ZM10.3002 15.2547C10.4042 15.388 10.3802 15.4307 10.3842 15.4013C10.3868 15.3827 10.3922 15.4133 10.3122 15.4853C10.1969 15.5817 10.0662 15.6579 9.9255 15.7107C9.75649 15.7787 9.58022 15.827 9.40016 15.8547C9.29032 15.8756 9.17799 15.8801 9.06683 15.868C9.04416 15.8627 9.09083 15.868 9.16016 15.9173C9.24519 15.9829 9.30768 16.0734 9.33898 16.1761C9.37028 16.2789 9.36883 16.3888 9.33483 16.4907C9.32727 16.5128 9.31697 16.5338 9.30416 16.5533C9.3015 16.556 9.32416 16.5267 9.40016 16.464C9.55216 16.3413 9.83216 16.1627 10.2988 15.9307L9.7015 14.7373C9.19883 14.988 8.8215 15.2173 8.56283 15.4267C8.43165 15.5291 8.31503 15.6488 8.21616 15.7827C8.09042 15.951 8.0247 16.1566 8.0295 16.3667C8.04283 16.6547 8.19883 16.8667 8.3695 16.9907C8.52016 17.1027 8.68683 17.1507 8.8095 17.176C9.05883 17.2253 9.34283 17.212 9.60016 17.1733C10.1068 17.096 10.7628 16.8773 11.2095 16.472C11.4415 16.26 11.6615 15.956 11.7082 15.5573C11.7562 15.1493 11.6095 14.7667 11.3522 14.4373L10.2988 15.2547H10.3002ZM10.4002 15.8667C10.6135 15.7035 10.8453 15.5661 11.0908 15.4573L10.5615 14.2333C10.2415 14.372 9.9215 14.56 9.60016 14.8L10.4002 15.8667ZM11.0908 15.4573C11.9575 15.0827 12.7322 15.28 13.5255 15.6573C13.7255 15.7533 13.9202 15.8573 14.1175 15.964C14.3095 16.068 14.5122 16.1787 14.7042 16.2773C15.0722 16.4627 15.5282 16.6667 16.0002 16.6667V15.3333C15.8748 15.3333 15.6695 15.2707 15.3068 15.088C15.1362 15 14.9575 14.9013 14.7522 14.7907C14.5522 14.6827 14.3308 14.564 14.0988 14.4547C13.1682 14.0107 11.9508 13.6333 10.5615 14.2333L11.0908 15.4573Z" fill="#383838"/>
</svg>
