<svg width="16" height="16" viewBox="0 0 16 16" fill="none" xmlns="http://www.w3.org/2000/svg">
<path d="M11.1991 6C11.1991 6.31826 11.0727 6.62348 10.8476 6.84853C10.6226 7.07357 10.3174 7.2 9.9991 7.2C9.68084 7.2 9.37562 7.07357 9.15057 6.84853C8.92553 6.62348 8.7991 6.31826 8.7991 6C8.7991 5.68174 8.92553 5.37651 9.15057 5.15147C9.37562 4.92643 9.68084 4.8 9.9991 4.8C10.3174 4.8 10.6226 4.92643 10.8476 5.15147C11.0727 5.37651 11.1991 5.68174 11.1991 6ZM10.3991 6C10.3991 5.89391 10.357 5.79217 10.2819 5.71716C10.2069 5.64214 10.1052 5.6 9.9991 5.6C9.89302 5.6 9.79127 5.64214 9.71626 5.71716C9.64125 5.79217 9.5991 5.89391 9.5991 6C9.5991 6.10609 9.64125 6.20783 9.71626 6.28284C9.79127 6.35786 9.89302 6.4 9.9991 6.4C10.1052 6.4 10.2069 6.35786 10.2819 6.28284C10.357 6.20783 10.3991 6.10609 10.3991 6ZM2.3999 4.8C2.3999 4.16348 2.65276 3.55303 3.10285 3.10294C3.55293 2.65286 4.16338 2.4 4.7999 2.4H11.1991C11.8356 2.4 12.4461 2.65286 12.8962 3.10294C13.3462 3.55303 13.5991 4.16348 13.5991 4.8V7.2016C13.3236 7.21412 13.0526 7.27618 12.7991 7.3848V4.8C12.7991 4.37565 12.6305 3.96869 12.3305 3.66863C12.0304 3.36857 11.6234 3.2 11.1991 3.2H4.7991C4.37476 3.2 3.96779 3.36857 3.66773 3.66863C3.36767 3.96869 3.1991 4.37565 3.1991 4.8V11.1992C3.1991 11.4968 3.2815 11.776 3.4231 12.0152L7.1583 8.3448C7.38269 8.12445 7.68461 8.00099 7.9991 8.00099C8.31359 8.00099 8.61552 8.12445 8.8399 8.3448L10.2359 9.7168L9.6703 10.2824L8.2799 8.9152C8.2051 8.84167 8.1044 8.80046 7.9995 8.80046C7.89461 8.80046 7.79391 8.84167 7.7191 8.9152L3.9903 12.5792C4.23557 12.7239 4.51515 12.8001 4.7999 12.8H7.5791C7.5663 12.84 7.5551 12.8824 7.5447 12.924L7.3759 13.6H4.7999C4.16338 13.6 3.55293 13.3471 3.10285 12.8971C2.65276 12.447 2.3999 11.8365 2.3999 11.2V4.8ZM8.7831 12.3008L12.6463 8.4368C12.927 8.15631 13.3076 7.99881 13.7045 7.99896C14.1013 7.99911 14.4818 8.15689 14.7623 8.4376C15.0428 8.7183 15.2003 9.09894 15.2001 9.49577C15.2 9.89259 15.0422 10.2731 14.7615 10.5536L10.8983 14.416C10.6732 14.6412 10.3912 14.801 10.0823 14.8784L8.8839 15.1784C8.76471 15.208 8.6399 15.2062 8.52158 15.1733C8.40327 15.1404 8.29548 15.0775 8.20868 14.9906C8.12188 14.9037 8.05903 14.7959 8.02623 14.6775C7.99344 14.5592 7.99181 14.4344 8.0215 14.3152L8.3207 13.1168C8.3983 12.808 8.5575 12.5256 8.7831 12.3008Z" fill="#898B96"/>
</svg>
