<svg width="16" height="16" viewBox="0 0 16 16" fill="none" xmlns="http://www.w3.org/2000/svg">
<path d="M6 1.6C5.46957 1.6 4.96086 1.81071 4.58579 2.18579C4.21071 2.56086 4 3.06957 4 3.6V10C4 10.5304 4.21071 11.0391 4.58579 11.4142C4.96086 11.7893 5.46957 12 6 12H12.4C12.9304 12 13.4391 11.7893 13.8142 11.4142C14.1893 11.0391 14.4 10.5304 14.4 10V3.6C14.4 3.06957 14.1893 2.56086 13.8142 2.18579C13.4391 1.81071 12.9304 1.6 12.4 1.6H6ZM13.6 3.6V4H8.4C8.29391 4 8.19217 3.95786 8.11716 3.88284C8.04214 3.80783 8 3.70609 8 3.6V2.4H12.4C12.7183 2.4 13.0235 2.52643 13.2485 2.75147C13.4736 2.97652 13.6 3.28174 13.6 3.6ZM7.2 3.6C7.2 3.91826 7.32643 4.22349 7.55147 4.44853C7.77652 4.67357 8.08174 4.8 8.4 4.8H13.6V10C13.6 10.3183 13.4736 10.6235 13.2485 10.8485C13.0235 11.0736 12.7183 11.2 12.4 11.2H6C5.68174 11.2 5.37652 11.0736 5.15147 10.8485C4.92643 10.6235 4.8 10.3183 4.8 10V3.6C4.8 3.28174 4.92643 2.97652 5.15147 2.75147C5.37652 2.52643 5.68174 2.4 6 2.4H7.2V3.6Z" fill="#898B96"/>
<path d="M9.99998 14.4C10.461 14.4001 10.908 14.2409 11.2651 13.9493C11.6223 13.6578 11.8678 13.2517 11.96 12.8H11.132C11.0492 13.0341 10.8959 13.2367 10.6932 13.38C10.4904 13.5233 10.2482 13.6001 9.99998 13.6H4.79998C4.16346 13.6 3.55301 13.3471 3.10292 12.8971C2.65283 12.447 2.39998 11.8365 2.39998 11.2V6C2.39985 5.75174 2.47672 5.50955 2.62 5.30681C2.76328 5.10407 2.96591 4.95075 3.19998 4.868V4.04C2.74823 4.13221 2.34222 4.37767 2.05065 4.73484C1.75909 5.09201 1.59988 5.53894 1.59998 6V11.2C1.59998 12.0487 1.93712 12.8626 2.53723 13.4627C3.13735 14.0629 3.95128 14.4 4.79998 14.4H9.99998Z" fill="#898B96"/>
</svg>
