<svg width="16" height="16" viewBox="0 0 16 16" fill="none" xmlns="http://www.w3.org/2000/svg">
<path d="M9.2 3.2C9.2 2.88174 9.07357 2.57652 8.84853 2.35147C8.62348 2.12643 8.31826 2 8 2C7.68174 2 7.37652 2.12643 7.15147 2.35147C6.92643 2.57652 6.8 2.88174 6.8 3.2H6C6 2.66957 6.21071 2.16086 6.58579 1.78579C6.96086 1.41071 7.46957 1.2 8 1.2C8.53043 1.2 9.03914 1.41071 9.41421 1.78579C9.78929 2.16086 10 2.66957 10 3.2H13.6C13.7061 3.2 13.8078 3.24214 13.8828 3.31716C13.9579 3.39217 14 3.49391 14 3.6C14 3.70609 13.9579 3.80783 13.8828 3.88284C13.8078 3.95786 13.7061 4 13.6 4H13.1568L12.12 12.984C12.0749 13.3739 11.888 13.7336 11.5949 13.9947C11.3018 14.2558 10.9229 14.4001 10.5304 14.4H5.4696C5.07708 14.4001 4.69823 14.2558 4.40513 13.9947C4.11204 13.7336 3.92514 13.3739 3.88 12.984L2.8424 4H2.4C2.30638 4.00003 2.21571 3.96722 2.14379 3.90729C2.07187 3.84735 2.02325 3.76409 2.0064 3.672L2 3.6C2 3.49391 2.04214 3.39217 2.11716 3.31716C2.19217 3.24214 2.29391 3.2 2.4 3.2H9.2ZM12.3504 4H3.6488L4.6744 12.892C4.69698 13.087 4.79048 13.2669 4.93712 13.3975C5.08375 13.5281 5.27327 13.6001 5.4696 13.6H10.5304C10.7266 13.5999 10.9159 13.5278 11.0624 13.3972C11.2088 13.2667 11.3022 13.0869 11.3248 12.892L12.3504 4ZM6.8 6C6.996 6 7.16 6.124 7.1936 6.2872L7.2 6.3504V11.2504C7.2 11.4432 7.0208 11.6 6.8 11.6C6.604 11.6 6.44 11.476 6.4064 11.3128L6.4 11.2496V6.3512C6.4 6.1576 6.5792 6.0008 6.8 6.0008V6ZM9.2 6C9.396 6 9.56 6.124 9.5936 6.2872L9.6 6.3504V11.2504C9.6 11.4432 9.4208 11.6 9.2 11.6C9.004 11.6 8.84 11.476 8.8064 11.3128L8.8 11.2496V6.3512C8.8 6.1576 8.9792 6.0008 9.2 6.0008V6Z" fill="#898B96"/>
</svg>
