<svg width="16" height="16" viewBox="0 0 16 16" fill="none" xmlns="http://www.w3.org/2000/svg">
<path d="M15.0534 3.69782L12.4445 1.07559C12.2721 0.904068 12.0388 0.807778 11.7956 0.807778C11.5524 0.807778 11.3191 0.904068 11.1467 1.07559L1.8978 10.3111L1.05336 13.9556C1.02423 14.0888 1.02523 14.2269 1.05628 14.3597C1.08734 14.4924 1.14766 14.6166 1.23285 14.7231C1.31804 14.8296 1.42595 14.9157 1.54868 14.9752C1.67141 15.0346 1.80588 15.0659 1.94225 15.0667C2.00579 15.0731 2.06982 15.0731 2.13336 15.0667L5.8178 14.2223L15.0534 4.99559C15.2249 4.8232 15.3212 4.5899 15.3212 4.34671C15.3212 4.10351 15.2249 3.87021 15.0534 3.69782ZM5.37336 13.4223L1.92003 14.1467L2.70669 10.76L9.62669 3.86671L12.2934 6.53337L5.37336 13.4223ZM12.8889 5.88893L10.2222 3.22226L11.7689 1.68448L14.3911 4.35115L12.8889 5.88893Z" fill="#898B96"/>
</svg>
